<svg width="508" height="505" viewBox="0 0 508 505" fill="none" xmlns="http://www.w3.org/2000/svg">
<path d="M475.696 254.143C317.324 376.068 382.998 505 244.445 505C105.893 505 83.8315 388.681 30.0133 254.143C-12.0322 149.035 98.6876 -26.1448 244.445 3.28517C407.021 64.9484 537.362 146.232 475.696 254.143Z" fill="#E0F2F1" fill-opacity="0.5"/>
<g style="mix-blend-mode:multiply">
<path d="M22.9781 94.739H168.097C173.648 94.739 178.972 96.9493 182.897 100.884C186.822 104.818 189.027 110.155 189.027 115.719V280.935C189.027 286.499 186.822 291.836 182.897 295.77C178.972 299.705 173.648 301.915 168.097 301.915H22.9931C17.4421 301.915 12.1185 299.705 8.19334 295.77C4.26821 291.836 2.0631 286.499 2.0631 280.935V115.689C2.0631 110.125 4.26821 104.788 8.19334 100.854C12.1185 96.9194 17.4421 94.709 22.9931 94.709L22.9781 94.739Z" fill="#CCCDD2"/>
</g>
<path d="M166.004 92.1166H20.9001C9.35727 92.1166 0 101.496 0 113.066V278.298C0 289.868 9.35727 299.248 20.9001 299.248H166.004C177.547 299.248 186.905 289.868 186.905 278.298V113.066C186.905 101.496 177.547 92.1166 166.004 92.1166Z" fill="white"/>
<path d="M186.875 123.541V113.051C186.875 110.296 186.333 107.568 185.281 105.023C184.23 102.477 182.688 100.165 180.744 98.2164C178.801 96.2682 176.494 94.7229 173.954 93.6685C171.415 92.6142 168.693 92.0715 165.945 92.0715H20.93C15.379 92.0715 10.0554 94.2819 6.13024 98.2164C2.20511 102.151 0 107.487 0 113.051L0 123.541H186.875Z" fill="#004A7C"/>
<path d="M146.854 114.7C146.854 115.153 146.674 115.588 146.354 115.908C146.035 116.228 145.601 116.408 145.149 116.408H133.757C133.305 116.408 132.872 116.228 132.552 115.908C132.233 115.588 132.053 115.153 132.053 114.7V103.281C132.053 102.828 132.233 102.393 132.552 102.073C132.872 101.753 133.305 101.573 133.757 101.573H145.149C145.601 101.573 146.035 101.753 146.354 102.073C146.674 102.393 146.854 102.828 146.854 103.281V114.7Z" fill="white"/>
<path d="M168.322 114.7C168.322 115.153 168.142 115.588 167.823 115.908C167.503 116.228 167.069 116.408 166.617 116.408H155.24C154.787 116.408 154.352 116.229 154.03 115.909C153.708 115.589 153.525 115.154 153.521 114.7V103.281C153.525 102.826 153.708 102.392 154.03 102.072C154.352 101.752 154.787 101.572 155.24 101.573H166.617C167.069 101.573 167.503 101.753 167.823 102.073C168.142 102.393 168.322 102.828 168.322 103.281V114.7Z" fill="white"/>
<path d="M122.186 108.99C122.186 110.978 121.399 112.883 119.997 114.289C118.595 115.694 116.694 116.483 114.711 116.483H19.0164C18.0314 116.495 17.054 116.31 16.1416 115.937C15.2293 115.565 14.4005 115.014 13.7039 114.315C13.0074 113.617 12.4572 112.786 12.0859 111.872C11.7145 110.957 11.5293 109.978 11.5414 108.99C11.5414 107.003 12.3289 105.097 13.7308 103.692C15.1326 102.287 17.0339 101.498 19.0164 101.498H114.786C116.768 101.498 118.67 102.287 120.072 103.692C121.473 105.097 122.261 107.003 122.261 108.99H122.186Z" fill="white"/>
<path d="M103.902 187.635C103.902 196.526 101.272 205.218 96.3437 212.611C91.4156 220.005 84.411 225.767 76.2157 229.17C68.0205 232.572 59.0026 233.462 50.3026 231.728C41.6026 229.993 33.6111 225.711 27.3387 219.424C21.0663 213.137 16.7948 205.126 15.0642 196.405C13.3337 187.685 14.2219 178.645 17.6165 170.431C21.0111 162.216 26.7596 155.194 34.1351 150.255C41.5106 145.315 50.1819 142.678 59.0524 142.678C70.9473 142.678 82.3551 147.414 90.7661 155.846C99.1771 164.277 103.902 175.712 103.902 187.635Z" fill="#D8DADE"/>
<path d="M81.4923 213.47C82.9873 220.109 36.2836 219.464 36.2836 213.47C43.5642 200.867 36.5078 192.49 35.6706 175.841C34.8334 159.192 80.2963 163.718 81.2381 175.841C82.18 187.965 75.1385 204.644 81.4923 213.47Z" fill="#732313"/>
<path d="M73.3446 244.52H80.0421L79.8627 242.137C79.8627 242.137 79.1451 221.322 78.3677 215.478C77.5903 209.634 72.9708 209.694 72.9708 209.694L69.637 219.494C69.637 219.494 72.627 238.001 72.9559 241.973C72.9858 242.527 73.1353 243.411 73.3446 244.52Z" fill="#F5BA93"/>
<path d="M42.0543 244.52C42.3084 243.306 42.4729 242.332 42.5327 241.733C42.8915 237.777 45.8516 219.254 45.8516 219.254L42.5177 209.454C42.5177 209.454 37.9131 209.454 37.1208 215.238C36.3284 221.023 35.6258 241.898 35.6258 241.898L35.4314 244.505L42.0543 244.52Z" fill="#F5BA93"/>
<path d="M43.3549 236.413L45.1639 244.52H70.3994L73.0904 236.413C73.0904 236.413 77.3362 233.266 77.2913 230.419C77.2465 227.572 71.8795 219.569 71.8795 219.569L73.7482 209.559L65.7799 205.708H50.202L42.3832 209.304L43.9978 219.494C43.9978 219.494 39.6473 227.182 39.5875 230.344C39.5277 233.506 43.3549 236.413 43.3549 236.413Z" fill="#E55747"/>
<path d="M65.7799 205.708C65.7799 205.708 68.6054 216.782 67.0805 219.614C65.3613 222.806 51.4578 222.536 49.589 219.614C47.7203 216.692 50.2319 205.708 50.2319 205.708L52.6239 205.573V193.884H63.3131V205.093L65.7799 205.708Z" fill="#F5BA93"/>
<path d="M61.4892 203.984C62.0996 203.806 62.6987 203.591 63.2832 203.34V193.884H52.594V202.411C55.4345 203.804 58.1853 204.913 61.4892 203.984Z" fill="#DA9B7E"/>
<path d="M81.3279 187.455C80.7984 187.607 80.2432 187.648 79.6974 187.573C79.1517 187.498 78.6276 187.31 78.1584 187.02C78.1584 187.02 70.6835 187.41 70.6835 185.522V178.928C70.6835 174.238 78.1584 174.702 78.1584 174.702C78.3675 174.388 78.6368 174.119 78.9508 173.91C79.2647 173.701 79.617 173.556 79.9871 173.485C80.3572 173.414 80.7377 173.418 81.1065 173.495C81.4753 173.573 81.825 173.724 82.1351 173.938C85.7381 176.441 84.1384 186.256 81.3279 187.455Z" fill="#F5BA93"/>
<path d="M36.8218 187.455C37.3487 187.607 37.9016 187.647 38.4449 187.572C38.9881 187.497 39.5097 187.309 39.9762 187.02C39.9762 187.02 47.4512 187.41 47.4512 185.522V178.928C47.4512 174.238 39.9762 174.702 39.9762 174.702C39.7686 174.386 39.4999 174.115 39.186 173.905C38.8722 173.695 38.5195 173.55 38.1488 173.479C37.7781 173.408 37.3969 173.412 37.0278 173.49C36.6587 173.569 36.309 173.721 35.9995 173.938C32.3966 176.441 33.9962 186.256 36.8218 187.455Z" fill="#F5BA93"/>
<path d="M78.3378 184.758C78.3378 193.494 65.7201 203.19 58.9029 203.19C51.4279 203.19 39.4679 192.88 39.4679 184.218V165.951C39.4679 140.146 78.2332 138.437 78.2332 165.951L78.3378 184.758Z" fill="#F5BA93"/>
<path d="M40.7393 174.897C40.6197 172.439 44.686 170.401 45.0897 161.5C48.4534 163.373 64.8087 172.994 77.1424 174.852C77.0269 177.725 77.537 180.589 78.6374 183.244C78.6374 183.244 78.6374 178.748 78.6374 176.426C78.6374 174.103 81.5377 173.309 81.5377 173.309V165.336C81.5377 161.065 77.1723 141.209 58.9035 145.855C41.4868 141.809 33.5932 160.121 33.9669 164.632C34.3407 169.143 34.8191 175.242 34.8191 175.242C34.8191 175.242 38.8107 171.54 39.3041 176.65C39.6031 179.408 39.3041 182.315 41.3522 182.765C41.0981 180.322 40.9187 178.029 40.7393 174.897Z" fill="#732313"/>
<path d="M58.5889 176.231V189.029L60.8314 187.26L58.5889 176.231Z" fill="#DA9B7E"/>
<path d="M55.2252 173.713C55.2252 173.713 51.7867 171.405 49.604 172.215C47.8166 172.992 46.158 174.038 44.6855 175.317L44.3865 174.178C45.6502 172.685 47.4059 171.696 49.3349 171.391C51.5118 171.436 53.6007 172.26 55.2252 173.713Z" fill="#732313"/>
<path d="M53.3265 193.524C53.3265 193.524 55.1355 195.263 56.167 195.338C58.1608 195.518 60.1691 195.452 62.147 195.143C62.8442 194.677 63.495 194.145 64.0905 193.554L59.0374 193.314C58.3049 193.314 53.3265 193.524 53.3265 193.524Z" fill="#CB4639"/>
<path d="M50.4412 192.176C51.6393 192.64 52.8982 192.928 54.1787 193.03C55.2401 192.91 57.0192 191.396 57.4527 191.531L58.9477 192.146C59.5175 191.841 60.1339 191.633 60.7716 191.531C61.1902 191.531 63.4028 193.03 64.1802 193.03C65.057 192.808 65.9164 192.523 66.7516 192.176C65.7637 192.851 64.7181 193.438 63.6271 193.929C62.1382 194.169 60.6182 194.133 59.1421 193.824C57.7368 193.734 55.7036 194.723 54.1039 193.824C52.5043 192.925 50.4412 192.176 50.4412 192.176Z" fill="#E44E40"/>
<path d="M62.9095 173.504C62.9095 173.504 66.348 171.181 68.5307 171.915C70.3219 172.694 71.9852 173.739 73.4642 175.017L73.7482 173.893C72.4717 172.411 70.7034 171.443 68.7699 171.166C66.6012 171.222 64.5234 172.05 62.9095 173.504Z" fill="#732313"/>
<path d="M67.6785 175.646C70.1752 175.646 69.8014 177.505 70.5938 178.014C71.1157 177.785 71.6497 177.585 72.1934 177.415C71.6878 176.7 71.0137 176.123 70.2311 175.733C69.4485 175.343 68.5818 175.154 67.7084 175.182C66.8515 175.133 65.9967 175.309 65.2285 175.693C64.4603 176.077 63.8053 176.655 63.3281 177.37C63.5738 177.367 63.8178 177.412 64.0457 177.505C64.8231 176.995 65.1819 175.646 67.6785 175.646Z" fill="#2D120E"/>
<path d="M71.5805 177.415C71.5805 177.415 71.0722 179.303 67.8729 179.303C67.0267 179.353 66.1806 179.204 65.402 178.869C64.6233 178.533 63.9336 178.02 63.3879 177.37C63.9468 176.741 64.6411 176.249 65.4182 175.929C66.1953 175.61 67.0347 175.472 67.8729 175.527C71.0722 175.527 71.5805 177.415 71.5805 177.415Z" fill="white"/>
<path d="M65.6902 177.37C65.6906 177.728 65.7763 178.08 65.9402 178.398C66.104 178.716 66.3412 178.99 66.632 179.198C67.4584 179.338 68.3023 179.338 69.1287 179.198C69.4188 178.99 69.6552 178.716 69.8183 178.398C69.9814 178.08 70.0665 177.727 70.0665 177.37C70.0665 177.012 69.9814 176.66 69.8183 176.342C69.6552 176.024 69.4188 175.749 69.1287 175.541C68.3008 175.422 67.4599 175.422 66.632 175.541C66.3412 175.749 66.104 176.023 65.9402 176.341C65.7763 176.659 65.6906 177.012 65.6902 177.37Z" fill="#2D120E"/>
<path d="M68.7699 177.415C68.7699 177.592 68.7173 177.766 68.6187 177.914C68.5201 178.062 68.38 178.177 68.2161 178.245C68.0522 178.313 67.8719 178.331 67.6979 178.296C67.5239 178.262 67.364 178.176 67.2386 178.05C67.1131 177.925 67.0277 177.764 66.9931 177.59C66.9585 177.416 66.9763 177.235 67.0442 177.071C67.112 176.906 67.227 176.766 67.3745 176.667C67.522 176.568 67.6955 176.516 67.8729 176.516C68.1108 176.516 68.3389 176.61 68.5071 176.779C68.6754 176.947 68.7699 177.176 68.7699 177.415Z" fill="#170000"/>
<path d="M67.6486 176.561C67.6449 176.667 67.6012 176.767 67.5263 176.843C67.4514 176.918 67.3508 176.961 67.245 176.965C67.1379 176.965 67.0353 176.923 66.9596 176.847C66.8839 176.771 66.8413 176.668 66.8413 176.561C66.8413 176.508 66.8518 176.456 66.8723 176.408C66.8927 176.36 66.9227 176.316 66.9604 176.28C66.9981 176.243 67.0427 176.215 67.0916 176.196C67.1405 176.178 67.1927 176.169 67.245 176.171C67.3495 176.171 67.45 176.211 67.5252 176.284C67.6005 176.357 67.6447 176.456 67.6486 176.561Z" fill="white"/>
<path d="M67.9028 177.43C67.9028 177.485 67.8807 177.539 67.8415 177.578C67.8022 177.617 67.749 177.639 67.6935 177.639C67.638 177.639 67.5847 177.617 67.5455 177.578C67.5062 177.539 67.4842 177.485 67.4842 177.43C67.4842 177.374 67.5062 177.321 67.5455 177.281C67.5847 177.242 67.638 177.22 67.6935 177.22C67.749 177.22 67.8022 177.242 67.8415 177.281C67.8807 177.321 67.9028 177.374 67.9028 177.43Z" fill="white"/>
<path d="M50.4562 175.646C47.9595 175.646 48.3333 177.505 47.5409 178.014C47.0239 177.786 46.4949 177.586 45.9562 177.415C46.4589 176.697 47.1326 176.117 47.9158 175.727C48.6991 175.337 49.5672 175.15 50.4412 175.182C51.2981 175.133 52.1529 175.309 52.9211 175.693C53.6893 176.077 54.3444 176.655 54.8215 177.37C54.5758 177.367 54.3319 177.412 54.1039 177.505C53.3265 176.995 52.9528 175.646 50.4562 175.646Z" fill="#2D120E"/>
<path d="M46.5542 177.415C46.5542 177.415 47.0775 179.303 50.2618 179.303C51.1079 179.353 51.954 179.204 52.7327 178.869C53.5114 178.533 54.2011 178.02 54.7468 177.37C54.1879 176.741 53.4935 176.249 52.7164 175.929C51.9394 175.61 51.0999 175.472 50.2618 175.527C47.0775 175.527 46.5542 177.415 46.5542 177.415Z" fill="white"/>
<path d="M52.4445 177.37C52.4434 177.726 52.3589 178.077 52.1979 178.394C52.0369 178.712 51.8039 178.987 51.5176 179.198C50.6862 179.338 49.8374 179.338 49.006 179.198C48.7187 178.988 48.485 178.713 48.3239 178.395C48.1628 178.077 48.0788 177.726 48.0788 177.37C48.0788 177.013 48.1628 176.662 48.3239 176.344C48.485 176.027 48.7187 175.751 49.006 175.541C49.8389 175.422 50.6847 175.422 51.5176 175.541C51.8039 175.752 52.0369 176.028 52.1979 176.345C52.3589 176.663 52.4434 177.014 52.4445 177.37Z" fill="#2D120E"/>
<path d="M49.3349 177.415C49.3388 177.651 49.4351 177.875 49.6029 178.041C49.7707 178.206 49.9966 178.299 50.2319 178.299C50.448 178.271 50.6464 178.165 50.7902 178.001C50.934 177.836 51.0133 177.626 51.0133 177.407C51.0133 177.189 50.934 176.978 50.7902 176.814C50.6464 176.65 50.448 176.544 50.2319 176.516C50.1141 176.516 49.9975 176.539 49.8886 176.584C49.7798 176.629 49.6809 176.695 49.5976 176.779C49.5143 176.862 49.4483 176.961 49.4032 177.071C49.3581 177.18 49.3349 177.297 49.3349 177.415Z" fill="#170000"/>
<path d="M50.501 176.561C50.4896 176.619 50.4913 176.68 50.5059 176.737C50.5205 176.795 50.5477 176.849 50.5856 176.895C50.6235 176.941 50.6711 176.978 50.7249 177.004C50.7788 177.029 50.8376 177.043 50.8972 177.043C50.9567 177.043 51.0156 177.029 51.0694 177.004C51.1233 176.978 51.1709 176.941 51.2087 176.895C51.2466 176.849 51.2738 176.795 51.2885 176.737C51.3031 176.68 51.3048 176.619 51.2934 176.561C51.2754 176.468 51.2261 176.385 51.1538 176.326C51.0815 176.266 50.9908 176.233 50.8972 176.233C50.8035 176.233 50.7128 176.266 50.6405 176.326C50.5683 176.385 50.5189 176.468 50.501 176.561Z" fill="white"/>
<path d="M50.2469 177.43C50.2469 177.485 50.2689 177.539 50.3082 177.578C50.3474 177.617 50.4006 177.639 50.4562 177.639C50.5117 177.639 50.5649 177.617 50.6041 177.578C50.6434 177.539 50.6655 177.485 50.6655 177.43C50.6619 177.375 50.6388 177.324 50.6002 177.285C50.5617 177.247 50.5105 177.223 50.4562 177.22C50.4006 177.22 50.3474 177.242 50.3082 177.281C50.2689 177.321 50.2469 177.374 50.2469 177.43Z" fill="white"/>
<path d="M171.521 146.02H111.317V157.439H171.521V146.02Z" fill="#B0AFB5"/>
<path d="M171.521 165.591H111.317V171.3H171.521V165.591Z" fill="#D8DADE"/>
<path d="M171.521 177.28H111.317V182.989H171.521V177.28Z" fill="#D8DADE"/>
<path d="M171.521 188.969H111.317V194.678H171.521V188.969Z" fill="#D8DADE"/>
<path d="M171.521 200.642H111.317V206.352H171.521V200.642Z" fill="#D8DADE"/>
<path d="M171.521 212.346H111.317V218.056H171.521V212.346Z" fill="#D8DADE"/>
<path d="M171.521 224.02H111.317V229.729H171.521V224.02Z" fill="#D8DADE"/>
<path d="M171.521 247.952H22.3652V253.661H171.521V247.952Z" fill="#D8DADE"/>
<path d="M171.521 262.098H22.3652V267.808H171.521V262.098Z" fill="#D8DADE"/>
<g style="mix-blend-mode:multiply">
<path d="M496.339 175.332C494.765 172.953 492.627 171.002 490.118 169.653C487.608 168.304 484.805 167.598 481.957 167.599H361.984C359.713 167.599 357.464 168.048 355.367 168.919C353.269 169.791 351.363 171.068 349.758 172.678C348.153 174.288 346.88 176.2 346.013 178.303C345.145 180.407 344.7 182.661 344.702 184.937V321.591C345.055 326.57 347.161 331.261 350.644 334.829C354.127 338.397 358.76 340.609 363.718 341.072H483.736C486.011 341.072 488.263 340.622 490.364 339.748C492.464 338.874 494.372 337.592 495.978 335.977C497.583 334.362 498.855 332.446 499.72 330.337C500.585 328.228 501.026 325.969 501.018 323.689V187.05C500.996 182.691 499.324 178.502 496.339 175.332Z" fill="#C3C5CA"/>
</g>
<g style="mix-blend-mode:multiply">
<path d="M490.703 165.741H370.685C361.14 165.741 353.402 173.497 353.402 183.064V319.733C353.402 329.3 361.14 337.056 370.685 337.056H490.703C500.248 337.056 507.985 329.3 507.985 319.733V183.064C507.985 173.497 500.248 165.741 490.703 165.741Z" fill="#CCCDD2"/>
</g>
<path d="M488.984 163.568H368.965C359.421 163.568 351.683 171.324 351.683 180.891V317.56C351.683 327.127 359.421 334.883 368.965 334.883H488.984C498.528 334.883 506.266 327.127 506.266 317.56V180.891C506.266 171.324 498.528 163.568 488.984 163.568Z" fill="white"/>
<path d="M506.266 189.553V180.891C506.266 176.297 504.445 171.891 501.204 168.642C497.963 165.393 493.567 163.568 488.984 163.568H368.965C366.695 163.566 364.447 164.013 362.349 164.883C360.252 165.752 358.346 167.028 356.741 168.637C355.135 170.246 353.862 172.157 352.995 174.26C352.127 176.362 351.681 178.616 351.683 180.891V189.553H506.266Z" fill="#004A7C"/>
<path d="M473.137 182.24C473.137 182.622 472.992 182.991 472.731 183.269C472.47 183.548 472.112 183.716 471.731 183.739H462.313C461.929 183.719 461.568 183.553 461.304 183.274C461.039 182.995 460.892 182.625 460.893 182.24V172.799C460.893 172.613 460.929 172.428 461.001 172.257C461.073 172.085 461.177 171.929 461.31 171.798C461.442 171.667 461.598 171.563 461.771 171.493C461.943 171.423 462.127 171.388 462.313 171.39H471.731C472.104 171.39 472.462 171.539 472.725 171.803C472.989 172.067 473.137 172.426 473.137 172.799V182.24Z" fill="white"/>
<path d="M490.897 182.24C490.898 182.622 490.753 182.99 490.492 183.269C490.23 183.548 489.873 183.716 489.492 183.739H480.073C479.693 183.716 479.335 183.548 479.074 183.269C478.813 182.99 478.667 182.622 478.668 182.24V172.799C478.668 172.425 478.816 172.067 479.08 171.803C479.343 171.539 479.701 171.39 480.073 171.39H489.492C489.865 171.39 490.222 171.539 490.486 171.803C490.749 172.067 490.897 172.425 490.897 172.799V182.24Z" fill="white"/>
<path d="M452.73 177.52C452.73 179.146 452.086 180.707 450.94 181.859C449.794 183.011 448.239 183.66 446.615 183.664H367.381C365.755 183.664 364.196 183.016 363.046 181.864C361.897 180.712 361.251 179.149 361.251 177.52C361.251 176.713 361.41 175.915 361.718 175.171C362.026 174.426 362.478 173.75 363.047 173.18C363.617 172.611 364.292 172.16 365.036 171.853C365.78 171.546 366.576 171.388 367.381 171.39H446.615C447.418 171.39 448.214 171.549 448.955 171.857C449.697 172.165 450.371 172.616 450.939 173.186C451.507 173.755 451.957 174.43 452.265 175.174C452.572 175.918 452.73 176.715 452.73 177.52Z" fill="white"/>
<path d="M437.616 242.572C437.616 249.925 435.44 257.114 431.365 263.228C427.289 269.342 421.496 274.107 414.719 276.921C407.941 279.735 400.484 280.472 393.289 279.037C386.094 277.602 379.485 274.061 374.297 268.862C369.11 263.662 365.578 257.037 364.146 249.825C362.715 242.613 363.45 235.138 366.257 228.344C369.064 221.551 373.819 215.744 379.918 211.659C386.018 207.573 393.189 205.393 400.525 205.393C410.362 205.393 419.796 209.31 426.752 216.282C433.708 223.255 437.616 232.712 437.616 242.572Z" fill="#D8DADE"/>
<path d="M407.716 276.859C409.001 282.853 389.178 278.567 389.178 273.203C395.786 261.769 379.789 260.899 379.296 236.098C378.997 221.008 420.528 225.054 420.647 236.098C420.887 258.067 401.945 268.842 407.716 276.859Z" fill="#51361D"/>
<path d="M413.486 298.408H419.556L419.392 296.251C419.392 296.251 418.734 277.369 418.016 272.064C417.299 266.759 413.113 266.819 413.113 266.819L410.123 275.705C410.123 275.705 412.799 292.489 413.113 296.086C413.157 296.595 413.292 297.404 413.486 298.408Z" fill="#9D6B3F"/>
<path d="M385.096 298.408C385.281 297.572 385.421 296.727 385.515 295.876C385.844 292.279 388.505 275.495 388.505 275.495L385.515 266.609C385.515 266.609 381.344 266.609 380.626 271.854C379.909 277.099 379.236 296.041 379.236 296.041L379.057 298.408H385.096Z" fill="#9D6B3F"/>
<path d="M386.203 291.05L387.847 298.408H410.81L413.247 291.05C413.247 291.05 417.104 288.203 417.059 285.551C417.014 282.898 412.156 275.705 412.156 275.705L413.86 266.624L406.594 263.177H392.497L385.38 266.459L386.875 275.705C386.875 275.705 382.914 282.674 382.869 285.551C382.824 288.428 386.203 291.05 386.203 291.05Z" fill="#5AB9BD"/>
<path d="M406.639 263.177C406.639 263.177 409.211 273.233 407.805 275.81C406.31 278.702 393.648 278.463 391.943 275.81C390.239 273.158 392.541 263.177 392.541 263.177L394.709 263.072V252.478H404.397V262.623L406.639 263.177Z" fill="#9D6B3F"/>
<path d="M402.737 261.619C403.286 261.46 403.825 261.27 404.352 261.049V252.478H394.679V260.21C397.236 261.424 399.732 262.473 402.737 261.619Z" fill="#815931"/>
<path d="M420.722 246.633C420.242 246.77 419.739 246.804 419.244 246.734C418.75 246.665 418.276 246.492 417.852 246.229C417.852 246.229 411.02 246.588 411.02 244.805V238.811C411.02 234.555 417.852 234.974 417.852 234.974C418.041 234.69 418.285 234.446 418.57 234.256C418.854 234.067 419.174 233.937 419.509 233.872C419.844 233.808 420.189 233.812 420.523 233.883C420.857 233.953 421.174 234.09 421.455 234.285C424.729 236.638 423.279 245.554 420.722 246.633Z" fill="#9D6B3F"/>
<path d="M380.342 246.633C380.822 246.77 381.326 246.804 381.82 246.734C382.314 246.665 382.789 246.492 383.213 246.229C383.213 246.229 390.045 246.588 390.045 244.805V238.811C390.045 234.555 383.213 234.974 383.213 234.974C383.022 234.689 382.776 234.445 382.49 234.255C382.205 234.066 381.884 233.935 381.547 233.871C381.211 233.807 380.865 233.811 380.53 233.882C380.194 233.953 379.877 234.09 379.595 234.285C376.336 236.638 377.771 245.554 380.342 246.633Z" fill="#9D6B3F"/>
<path d="M418.016 244.175C418.016 252.118 406.564 260.899 400.42 260.899C393.678 260.899 382.839 251.548 382.839 243.696V227.122C382.839 203.699 418.016 202.156 418.016 227.122V244.175Z" fill="#9D6B3F"/>
<path d="M383.9 235.274C383.781 233.041 396.309 229.969 399.732 220.288C403.036 228.68 405.712 233.611 416.94 235.274C416.818 237.876 417.262 240.474 418.24 242.887C418.24 242.887 418.24 238.811 418.24 236.728C418.24 234.645 420.887 233.88 420.887 233.88V226.657C420.887 222.776 416.925 204.763 400.33 208.974C384.528 205.318 377.696 220.603 377.711 226.028C377.788 229.252 378.047 232.469 378.488 235.664C378.488 235.664 382.106 232.292 382.6 236.922C382.869 239.425 382.6 242.063 384.454 242.482C384.214 240.159 384.065 238.076 383.9 235.274Z" fill="#51361D"/>
<path d="M400.091 236.443V248.057L402.124 246.453L400.091 236.443Z" fill="#815931"/>
<path d="M397.041 234.165C397.041 234.165 393.932 232.067 391.943 232.667C390.312 233.367 388.798 234.317 387.458 235.484L387.189 234.45C388.343 233.12 389.934 232.248 391.674 231.992C393.665 232.047 395.571 232.818 397.041 234.165Z" fill="#51361D"/>
<path d="M395.307 252.133C395.307 252.133 396.967 253.721 397.893 253.781C399.728 253.943 401.575 253.882 403.395 253.602C404.029 253.165 404.615 252.663 405.144 252.103L400.495 251.878C399.792 251.908 395.307 252.133 395.307 252.133Z" fill="#843921"/>
<path d="M392.706 250.919C393.79 251.333 394.928 251.591 396.085 251.683C397.056 251.578 398.671 250.185 399.075 250.38L400.42 250.949C400.932 250.668 401.488 250.475 402.065 250.38C402.453 250.38 404.457 251.773 405.159 251.683C405.955 251.488 406.734 251.233 407.491 250.919C406.597 251.526 405.652 252.052 404.666 252.493C403.293 252.731 401.886 252.7 400.525 252.403C399.254 252.328 397.4 253.227 396.04 252.403C394.679 251.578 392.706 250.919 392.706 250.919Z" fill="#843921"/>
<path d="M404.023 233.97C404.023 233.97 407.133 231.872 409.121 232.472C410.752 233.173 412.265 234.124 413.606 235.289L413.89 234.255C412.713 232.912 411.096 232.035 409.33 231.782C407.359 231.861 405.479 232.636 404.023 233.97Z" fill="#51361D"/>
<path d="M408.344 235.903C410.616 235.903 410.257 237.597 410.99 238.061C411.184 237.941 412.485 237.522 412.485 237.522C412.023 236.87 411.407 236.344 410.692 235.991C409.977 235.637 409.185 235.468 408.388 235.499C407.611 235.454 406.836 235.613 406.139 235.96C405.441 236.307 404.846 236.83 404.412 237.477C404.632 237.473 404.85 237.514 405.055 237.597C405.742 237.147 406.071 235.903 408.344 235.903Z" fill="#2D120E"/>
<path d="M411.887 237.522C411.887 237.522 411.408 239.23 408.523 239.23C407.753 239.28 406.982 239.148 406.273 238.843C405.564 238.538 404.936 238.07 404.442 237.477C404.947 236.902 405.579 236.451 406.287 236.16C406.994 235.869 407.76 235.745 408.523 235.798C411.408 235.798 411.887 237.522 411.887 237.522Z" fill="white"/>
<path d="M406.535 237.477C406.536 237.802 406.614 238.122 406.762 238.411C406.91 238.7 407.124 238.95 407.387 239.14C408.139 239.26 408.906 239.26 409.659 239.14C409.921 238.95 410.135 238.7 410.283 238.411C410.432 238.122 410.51 237.802 410.511 237.477C410.512 237.154 410.435 236.835 410.287 236.548C410.138 236.261 409.923 236.014 409.659 235.829C408.906 235.709 408.139 235.709 407.387 235.829C407.123 236.014 406.908 236.261 406.759 236.548C406.611 236.835 406.534 237.154 406.535 237.477Z" fill="#2D120E"/>
<path d="M409.33 237.522C409.33 237.736 409.245 237.942 409.094 238.094C408.942 238.246 408.737 238.331 408.523 238.331C408.309 238.331 408.103 238.246 407.952 238.094C407.801 237.942 407.716 237.736 407.716 237.522C407.716 237.307 407.801 237.101 407.952 236.95C408.103 236.798 408.309 236.713 408.523 236.713C408.737 236.713 408.942 236.798 409.094 236.95C409.245 237.101 409.33 237.307 409.33 237.522Z" fill="#170000"/>
<path d="M408.314 236.773C408.314 236.821 408.304 236.869 408.285 236.914C408.266 236.958 408.238 236.999 408.203 237.032C408.168 237.066 408.127 237.092 408.082 237.109C408.036 237.126 407.988 237.134 407.94 237.132C407.845 237.132 407.753 237.094 407.686 237.027C407.619 236.959 407.581 236.868 407.581 236.773C407.598 236.688 407.644 236.612 407.711 236.557C407.778 236.502 407.861 236.473 407.947 236.473C408.034 236.473 408.117 236.502 408.184 236.557C408.251 236.612 408.296 236.688 408.314 236.773Z" fill="white"/>
<path d="M408.538 237.537C408.538 237.589 408.517 237.638 408.481 237.675C408.445 237.711 408.395 237.732 408.344 237.732C408.292 237.732 408.243 237.711 408.206 237.675C408.17 237.638 408.149 237.589 408.149 237.537C408.149 237.485 408.17 237.436 408.206 237.399C408.243 237.363 408.292 237.342 408.344 237.342C408.395 237.342 408.445 237.363 408.481 237.399C408.517 237.436 408.538 237.485 408.538 237.537Z" fill="white"/>
<path d="M392.721 235.903C390.448 235.903 390.792 237.597 390.075 238.061C389.865 237.942 388.58 237.522 388.58 237.522C389.039 236.868 389.655 236.34 390.371 235.987C391.086 235.634 391.879 235.466 392.676 235.499C393.451 235.457 394.223 235.617 394.917 235.964C395.612 236.311 396.204 236.832 396.638 237.477C396.418 237.473 396.199 237.514 395.995 237.597C395.307 237.147 394.993 235.903 392.721 235.903Z" fill="#2D120E"/>
<path d="M389.178 237.522C389.178 237.522 389.641 239.23 392.541 239.23C393.311 239.278 394.081 239.144 394.79 238.84C395.499 238.535 396.126 238.069 396.623 237.477C396.115 236.903 395.484 236.454 394.776 236.163C394.069 235.872 393.304 235.747 392.541 235.799C389.641 235.799 389.178 237.522 389.178 237.522Z" fill="white"/>
<path d="M394.515 237.477C394.516 237.801 394.441 238.12 394.295 238.409C394.15 238.698 393.938 238.949 393.678 239.14C393.302 239.201 392.922 239.231 392.541 239.23C392.161 239.231 391.781 239.201 391.405 239.14C391.14 238.952 390.924 238.703 390.776 238.413C390.628 238.124 390.551 237.803 390.553 237.477C390.55 237.153 390.626 236.834 390.774 236.546C390.923 236.259 391.139 236.012 391.405 235.829C391.781 235.768 392.161 235.738 392.541 235.739C392.922 235.738 393.302 235.768 393.678 235.829C393.939 236.016 394.151 236.264 394.297 236.55C394.443 236.837 394.517 237.155 394.515 237.477Z" fill="#2D120E"/>
<path d="M391.689 237.522C391.689 237.628 391.71 237.733 391.751 237.832C391.791 237.93 391.851 238.019 391.926 238.094C392.001 238.169 392.09 238.229 392.188 238.269C392.286 238.31 392.391 238.331 392.497 238.331C392.709 238.327 392.913 238.241 393.063 238.09C393.214 237.939 393.3 237.735 393.304 237.522C393.304 237.416 393.283 237.31 393.242 237.212C393.202 237.114 393.142 237.025 393.067 236.95C392.992 236.875 392.903 236.815 392.805 236.774C392.708 236.734 392.603 236.713 392.497 236.713C392.391 236.713 392.286 236.734 392.188 236.774C392.09 236.815 392.001 236.875 391.926 236.95C391.851 237.025 391.791 237.114 391.751 237.212C391.71 237.31 391.689 237.416 391.689 237.522Z" fill="#170000"/>
<path d="M392.751 236.773C392.751 236.821 392.76 236.869 392.779 236.914C392.798 236.958 392.826 236.999 392.861 237.032C392.896 237.066 392.937 237.092 392.983 237.109C393.028 237.126 393.076 237.134 393.124 237.132C393.171 237.132 393.217 237.123 393.26 237.105C393.302 237.086 393.341 237.06 393.373 237.026C393.405 236.992 393.43 236.953 393.447 236.909C393.463 236.866 393.47 236.819 393.468 236.773C393.47 236.726 393.463 236.68 393.447 236.636C393.43 236.593 393.405 236.553 393.373 236.519C393.341 236.486 393.302 236.459 393.26 236.441C393.217 236.422 393.171 236.413 393.124 236.413C393.028 236.413 392.935 236.45 392.865 236.517C392.796 236.584 392.755 236.676 392.751 236.773Z" fill="white"/>
<path d="M392.511 237.537C392.511 237.575 392.523 237.613 392.544 237.645C392.566 237.677 392.596 237.702 392.631 237.717C392.667 237.732 392.706 237.735 392.744 237.728C392.781 237.72 392.816 237.702 392.843 237.675C392.87 237.647 392.889 237.613 392.896 237.575C392.904 237.537 392.9 237.498 392.885 237.462C392.871 237.427 392.846 237.396 392.814 237.375C392.782 237.353 392.744 237.342 392.706 237.342C392.654 237.342 392.605 237.363 392.568 237.399C392.532 237.436 392.511 237.485 392.511 237.537Z" fill="white"/>
<path d="M493.543 208.135H443.745V217.576H493.543V208.135Z" fill="#B0AFB5"/>
<path d="M493.543 224.334H443.745V229.055H493.543V224.334Z" fill="#D8DADE"/>
<path d="M493.543 238.721H479.176H443.745V234H493.543V238.721Z" fill="#D8DADE"/>
<path d="M493.543 243.666H443.745V248.386H493.543V243.666Z" fill="#D8DADE"/>
<path d="M493.543 253.332H443.745V258.052H493.543V253.332Z" fill="#D8DADE"/>
<path d="M493.543 262.997H443.745V267.718H493.543V262.997Z" fill="#D8DADE"/>
<path d="M493.543 272.663H443.745V277.384H493.543V272.663Z" fill="#D8DADE"/>
<path d="M493.543 292.459H370.176V297.18H493.543V292.459Z" fill="#D8DADE"/>
<path d="M493.543 304.148H370.176V308.868H493.543V304.148Z" fill="#D8DADE"/>
<g style="mix-blend-mode:multiply">
<path d="M395.516 11.9885C394.214 10.0243 392.448 8.41356 390.374 7.29972C388.3 6.18587 385.984 5.60354 383.631 5.60462H284.423C282.548 5.60462 280.692 5.97479 278.96 6.694C277.227 7.4132 275.653 8.46736 274.328 9.79629C273.002 11.1252 271.95 12.7029 271.233 14.4392C270.515 16.1755 270.146 18.0365 270.146 19.9159V132.892C270.149 136.507 271.516 139.987 273.973 142.633C275.283 144.607 277.062 146.223 279.15 147.338C281.237 148.452 283.568 149.029 285.933 149.017H385.126C388.917 149.017 392.552 147.508 395.232 144.821C397.913 142.134 399.418 138.49 399.418 134.691V21.7441C399.405 18.1127 398.01 14.6233 395.516 11.9885Z" fill="#D8DADE"/>
</g>
<g style="mix-blend-mode:multiply">
<path d="M291.524 1.79822H390.718C394.504 1.79822 398.136 3.30601 400.813 5.98989C403.491 8.67377 404.995 12.3139 404.995 16.1095V129.056C404.995 132.856 403.489 136.499 400.809 139.186C398.128 141.873 394.493 143.382 390.703 143.382H291.524C287.734 143.382 284.099 141.873 281.418 139.186C278.738 136.499 277.232 132.856 277.232 129.056V16.1095C277.236 12.3125 278.744 8.67243 281.424 5.98898C284.103 3.30553 287.737 1.79822 291.524 1.79822Z" fill="#CCCDD2"/>
</g>
<path d="M389.252 0H290.044C282.159 0 275.767 6.40737 275.767 14.3113V127.273C275.767 135.177 282.159 141.584 290.044 141.584H389.252C397.137 141.584 403.53 135.177 403.53 127.273V14.3113C403.53 6.40737 397.137 0 389.252 0Z" fill="white"/>
<path d="M403.53 21.4744V14.3113C403.526 10.5143 402.018 6.87421 399.338 4.19076C396.658 1.50731 393.025 -2.07726e-06 389.237 0H290.029C286.243 0 282.611 1.50779 279.934 4.19167C277.256 6.87555 275.752 10.5157 275.752 14.3113V21.4744H403.53Z" fill="#004A7C"/>
<path d="M374.99 6.45886H367.201C366.557 6.45886 366.035 6.98219 366.035 7.62774V15.4352C366.035 16.0808 366.557 16.6041 367.201 16.6041H374.99C375.634 16.6041 376.156 16.0808 376.156 15.4352V7.62774C376.156 6.98219 375.634 6.45886 374.99 6.45886Z" fill="white"/>
<path d="M389.671 6.45886H381.882C381.238 6.45886 380.716 6.98219 380.716 7.62774V15.4352C380.716 16.0808 381.238 16.6041 381.882 16.6041H389.671C390.315 16.6041 390.837 16.0808 390.837 15.4352V7.62774C390.837 6.98219 390.315 6.45886 389.671 6.45886Z" fill="white"/>
<path d="M359.278 11.539C359.278 12.8823 358.745 14.1707 357.798 15.1206C356.85 16.0705 355.565 16.6041 354.225 16.6041H288.759C287.419 16.6041 286.133 16.0705 285.186 15.1206C284.238 14.1707 283.706 12.8823 283.706 11.539C283.704 10.8726 283.833 10.2123 284.086 9.59604C284.339 8.97978 284.711 8.41963 285.18 7.9477C285.65 7.47577 286.207 7.10134 286.821 6.84585C287.436 6.59037 288.094 6.45886 288.759 6.45886H354.225C354.889 6.45886 355.548 6.59037 356.162 6.84585C356.776 7.10134 357.334 7.47577 357.803 7.9477C358.272 8.41963 358.644 8.97978 358.897 9.59604C359.15 10.2123 359.28 10.8726 359.278 11.539Z" fill="white"/>
<path d="M346.839 65.2923C346.839 71.3682 345.042 77.3077 341.674 82.3597C338.307 87.4116 333.52 91.3491 327.92 93.6743C322.32 95.9995 316.158 96.6078 310.213 95.4225C304.268 94.2371 298.807 91.3113 294.521 87.0149C290.235 82.7186 287.316 77.2447 286.133 71.2855C284.951 65.3264 285.558 59.1495 287.877 53.5361C290.197 47.9226 294.125 43.1247 299.165 39.7491C304.205 36.3735 310.13 34.5718 316.192 34.5718C324.32 34.5718 332.115 37.8084 337.863 43.5696C343.61 49.3308 346.839 57.1447 346.839 65.2923Z" fill="#D8DADE"/>
<path d="M326.283 77.026C321.275 81.5966 310.092 80.8174 306.729 78.2548C303.365 75.6923 297.071 71.9159 299.478 59.5078C301.885 47.0998 331.247 50.3816 331.919 59.5078C332.592 68.6341 331.067 72.6652 326.283 77.026Z" fill="#DE8021"/>
<path d="M326.298 107.896H331.067L330.947 106.218C330.947 106.218 330.394 91.4121 329.856 87.2761C329.318 83.1401 326.014 83.1701 326.014 83.1701L323.637 90.1384C323.637 90.1384 325.745 103.311 326.014 106.128C326.079 106.722 326.173 107.312 326.298 107.896Z" fill="#F2D4B6"/>
<path d="M304.038 107.896C304.202 107.042 304.322 106.398 304.366 105.918C304.621 103.101 306.729 89.9286 306.729 89.9286L304.352 82.9603C304.352 82.9603 301.077 82.9603 300.509 87.0814C299.941 91.2024 299.433 106.053 299.433 106.053L299.298 107.896H304.038Z" fill="#F2D4B6"/>
<path d="M304.979 102.187L306.265 107.941H324.28L326.193 102.187C326.193 102.187 329.183 99.939 329.183 97.871C329.183 95.803 325.341 90.1385 325.341 90.1385L326.672 83.0203L320.976 80.3229H309.898L304.337 82.8854L305.488 90.1385C305.488 90.1385 302.393 95.6082 302.348 97.871C302.303 100.134 304.979 102.187 304.979 102.187Z" fill="#B3211B"/>
<path d="M320.901 80.3228C320.901 80.3228 322.904 88.2053 321.828 90.2283C320.602 92.4912 310.705 92.3113 309.375 90.2283C308.044 88.1453 309.823 80.3228 309.823 80.3228L311.528 79.5136V71.9309H319.137V79.169L320.901 80.3228Z" fill="#F2D4B6"/>
<path d="M317.866 79.094C318.315 78.9592 318.733 78.8093 319.137 78.6445V71.9309H311.528V77.9251C313.416 79.1066 315.682 79.5244 317.866 79.094Z" fill="#DA9B7E"/>
<path d="M331.979 67.3304C331.601 67.437 331.206 67.4641 330.817 67.4099C330.429 67.3558 330.056 67.2215 329.722 67.0157C329.722 67.0157 324.414 67.3004 324.414 65.9367V61.2162C324.414 57.8595 329.766 58.2191 329.766 58.2191C329.915 57.994 330.108 57.801 330.332 57.6515C330.556 57.502 330.808 57.3991 331.073 57.3488C331.338 57.2986 331.61 57.3019 331.873 57.3587C332.137 57.4156 332.386 57.5247 332.607 57.6796C335.119 59.4929 333.982 66.4912 331.979 67.3304Z" fill="#F2D4B6"/>
<path d="M300.3 67.3304C300.678 67.437 301.073 67.4641 301.462 67.4099C301.85 67.3558 302.223 67.2215 302.558 67.0157C302.558 67.0157 307.969 67.3004 307.969 65.9367V61.2162C307.969 57.8595 302.617 58.2191 302.617 58.2191C302.468 57.994 302.276 57.801 302.052 57.6515C301.827 57.502 301.575 57.3991 301.311 57.3488C301.046 57.2986 300.774 57.3019 300.51 57.3587C300.247 57.4156 299.998 57.5247 299.777 57.6796C297.161 59.4929 298.297 66.4912 300.3 67.3304Z" fill="#F2D4B6"/>
<path d="M329.856 65.4122C329.856 71.6313 320.886 78.5246 316.057 78.5246C310.765 78.5246 302.259 71.1967 302.259 65.0376V52.0301C302.259 33.6577 329.856 32.4439 329.856 52.0301V65.4122Z" fill="#F2D4B6"/>
<path d="M303.096 58.4439C303.006 56.6905 305.891 55.2819 306.19 48.898C308.597 50.2318 320.228 57.0802 329.004 58.3989C328.914 60.4481 329.266 62.4926 330.036 64.3932C330.036 64.3932 330.036 61.1862 330.036 59.5528C330.036 57.9194 332.114 57.3199 332.114 57.3199V51.5954C332.114 48.5983 328.989 34.4219 315.983 37.7188C303.589 34.8415 298.043 47.894 298.237 51.1009C298.431 54.3078 298.85 58.5937 298.85 58.5937C298.85 58.5937 301.69 55.9563 302.079 59.5828C302.288 61.5459 302.079 63.6139 303.574 63.9436C303.35 62.2502 303.215 60.6318 303.096 58.4439Z" fill="#DE8021"/>
<path d="M315.803 59.343V68.4543L317.403 67.1955L315.803 59.343Z" fill="#DA9B7E"/>
<path d="M313.396 57.5598C313.396 57.5598 310.959 55.9113 309.405 56.4358C308.131 56.9822 306.95 57.7255 305.906 58.6387L305.682 57.8295C306.599 56.7714 307.869 56.0843 309.255 55.8964C310.789 55.9389 312.258 56.5287 313.396 57.5598Z" fill="#DE8021"/>
<path d="M312.051 71.6461C312.051 71.6461 313.336 72.8899 314.069 72.9349C315.509 73.0749 316.961 73.0296 318.39 72.8C318.885 72.4734 319.346 72.0968 319.765 71.6761L316.117 71.4963C315.564 71.4663 312.051 71.6461 312.051 71.6461Z" fill="#E24E70"/>
<path d="M310.003 70.6871C310.851 71.0141 311.742 71.216 312.649 71.2865C313.411 71.2865 314.682 70.1476 314.981 70.2675L316.042 70.7171C316.449 70.4981 316.888 70.3463 317.343 70.2675C317.642 70.2675 319.212 71.3764 319.765 71.2865C320.39 71.1447 321.001 70.944 321.589 70.6871C320.891 71.1691 320.15 71.5854 319.376 71.9309C318.299 72.1304 317.194 72.1304 316.117 71.9309C315.13 71.856 313.68 72.5603 312.544 71.9309C311.408 71.3015 310.003 70.6871 310.003 70.6871Z" fill="#E56681"/>
<path d="M318.883 57.3949C318.883 57.3949 321.32 55.7465 322.875 56.271C324.144 56.8124 325.324 57.5452 326.373 58.4439L326.597 57.6197C325.676 56.567 324.408 55.881 323.024 55.6865C321.486 55.7492 320.019 56.3542 318.883 57.3949Z" fill="#DE8021"/>
<path d="M322.277 58.9233C324.056 58.9233 323.772 60.257 324.355 60.6017C324.504 60.5118 325.476 60.1821 325.476 60.1821C325.117 59.6708 324.636 59.2576 324.078 58.9802C323.519 58.7028 322.9 58.5699 322.277 58.5936C321.671 58.5516 321.065 58.6675 320.517 58.9301C319.97 59.1927 319.499 59.5931 319.152 60.0922C319.326 60.0894 319.498 60.1199 319.66 60.1821C320.228 59.9423 320.497 58.9233 322.277 58.9233Z" fill="#2D120E"/>
<path d="M325.042 60.1821C325.042 60.1821 324.683 61.5308 322.411 61.5308C321.807 61.5698 321.203 61.4653 320.647 61.2257C320.091 60.9861 319.599 60.6183 319.212 60.1522C319.608 59.7006 320.103 59.3467 320.658 59.118C321.213 58.8893 321.813 58.7919 322.411 58.8334C324.683 58.8334 325.042 60.1821 325.042 60.1821Z" fill="white"/>
<path d="M320.856 60.1522C320.854 60.4064 320.912 60.6575 321.027 60.8844C321.141 61.1113 321.308 61.3073 321.514 61.456C321.811 61.5038 322.111 61.5289 322.411 61.5309C322.712 61.5296 323.011 61.5045 323.308 61.456C323.514 61.3073 323.681 61.1113 323.795 60.8844C323.91 60.6575 323.968 60.4064 323.966 60.1522C323.967 59.8982 323.908 59.6475 323.794 59.4209C323.679 59.1942 323.513 58.998 323.308 58.8485C323.009 58.8326 322.71 58.8326 322.411 58.8485C322.112 58.8331 321.813 58.8331 321.514 58.8485C321.309 58.998 321.143 59.1942 321.028 59.4209C320.914 59.6475 320.855 59.8982 320.856 60.1522Z" fill="#2D120E"/>
<path d="M323.039 60.1821C323.039 60.3066 323.002 60.4283 322.933 60.5318C322.864 60.6353 322.766 60.716 322.651 60.7636C322.537 60.8113 322.41 60.8237 322.289 60.7994C322.167 60.7751 322.055 60.7152 321.967 60.6272C321.879 60.5392 321.819 60.427 321.795 60.3049C321.771 60.1828 321.783 60.0563 321.831 59.9413C321.879 59.8263 321.959 59.728 322.062 59.6588C322.166 59.5896 322.287 59.5527 322.411 59.5527C322.578 59.5527 322.737 59.619 322.855 59.7371C322.973 59.8551 323.039 60.0152 323.039 60.1821Z" fill="#170000"/>
<path d="M322.247 59.5828C322.243 59.6571 322.212 59.7274 322.159 59.7801C322.107 59.8327 322.037 59.8639 321.963 59.8675C321.887 59.8675 321.815 59.8375 321.762 59.7841C321.708 59.7307 321.679 59.6583 321.679 59.5828C321.676 59.5448 321.682 59.5068 321.696 59.4713C321.709 59.4358 321.73 59.4035 321.757 59.3766C321.784 59.3497 321.816 59.3288 321.851 59.3153C321.887 59.3018 321.925 59.2959 321.963 59.298C322.038 59.298 322.11 59.328 322.163 59.3814C322.217 59.4348 322.247 59.5073 322.247 59.5828Z" fill="white"/>
<path d="M322.426 60.1972C322.426 60.237 322.41 60.2751 322.382 60.3032C322.354 60.3313 322.316 60.3471 322.277 60.3471C322.237 60.3471 322.199 60.3313 322.171 60.3032C322.143 60.2751 322.127 60.237 322.127 60.1972C322.127 60.1575 322.143 60.1194 322.171 60.0913C322.199 60.0632 322.237 60.0474 322.277 60.0474C322.316 60.0474 322.354 60.0632 322.382 60.0913C322.41 60.1194 322.426 60.1575 322.426 60.1972Z" fill="white"/>
<path d="M310.003 58.9233C308.239 58.9233 308.508 60.257 307.94 60.6017C307.775 60.5118 306.803 60.1821 306.803 60.1821C307.162 59.6708 307.643 59.2576 308.201 58.9802C308.76 58.7028 309.379 58.5699 310.003 58.5936C310.608 58.5516 311.214 58.6675 311.762 58.9301C312.31 59.1927 312.78 59.5931 313.127 60.0922C312.954 60.0894 312.781 60.1199 312.619 60.1821C312.051 59.9423 311.782 58.9233 310.003 58.9233Z" fill="#2D120E"/>
<path d="M307.237 60.1821C307.237 60.1821 307.596 61.5308 309.868 61.5308C310.472 61.5698 311.077 61.4653 311.632 61.2257C312.188 60.9861 312.68 60.6183 313.067 60.1522C312.671 59.7006 312.176 59.3467 311.621 59.118C311.067 58.8893 310.467 58.7919 309.868 58.8334C307.596 58.8334 307.237 60.1821 307.237 60.1821Z" fill="white"/>
<path d="M311.423 60.1522C311.425 60.4064 311.367 60.6575 311.252 60.8844C311.138 61.1113 310.971 61.3073 310.765 61.456C310.468 61.5045 310.169 61.5296 309.868 61.5309C309.568 61.5285 309.268 61.5035 308.971 61.456C308.767 61.3056 308.601 61.1092 308.487 60.8827C308.373 60.6563 308.313 60.406 308.313 60.1522C308.316 59.8988 308.376 59.6494 308.49 59.4233C308.604 59.1972 308.769 59.0005 308.971 58.8485C309.27 58.8485 309.569 58.8485 309.868 58.8485C310.167 58.8326 310.466 58.8326 310.765 58.8485C310.97 58.998 311.136 59.1942 311.251 59.4209C311.365 59.6475 311.424 59.8982 311.423 60.1522Z" fill="#2D120E"/>
<path d="M309.24 60.1821C309.24 60.3066 309.277 60.4283 309.346 60.5318C309.415 60.6353 309.513 60.716 309.628 60.7636C309.742 60.8113 309.869 60.8237 309.991 60.7994C310.112 60.7751 310.224 60.7152 310.312 60.6272C310.4 60.5392 310.46 60.427 310.484 60.3049C310.508 60.1828 310.496 60.0563 310.448 59.9413C310.401 59.8263 310.32 59.728 310.217 59.6588C310.114 59.5896 309.992 59.5527 309.868 59.5527C309.702 59.5527 309.542 59.619 309.424 59.7371C309.306 59.8551 309.24 60.0152 309.24 60.1821Z" fill="#170000"/>
<path d="M310.033 59.5827C310.036 59.6571 310.067 59.7274 310.12 59.78C310.172 59.8327 310.242 59.8638 310.317 59.8675C310.393 59.8676 310.467 59.838 310.523 59.785C310.578 59.732 310.612 59.6596 310.616 59.5827C310.616 59.544 310.608 59.5057 310.593 59.4702C310.577 59.4346 310.555 59.4026 310.527 59.3759C310.499 59.3493 310.466 59.3286 310.43 59.3152C310.394 59.3018 310.355 59.296 310.317 59.298C310.241 59.298 310.169 59.328 310.116 59.3814C310.062 59.4348 310.033 59.5072 310.033 59.5827Z" fill="white"/>
<path d="M309.853 60.1972C309.853 60.237 309.869 60.2751 309.897 60.3032C309.925 60.3313 309.963 60.3471 310.003 60.3471C310.042 60.3471 310.08 60.3313 310.108 60.3032C310.136 60.2751 310.152 60.237 310.152 60.1972C310.152 60.1575 310.136 60.1194 310.108 60.0913C310.08 60.0632 310.042 60.0474 310.003 60.0474C309.963 60.0474 309.925 60.0632 309.897 60.0913C309.869 60.1194 309.853 60.1575 309.853 60.1972Z" fill="white"/>
<path d="M393.005 36.8346H351.848V44.6421H393.005V36.8346Z" fill="#B0AFB5"/>
<path d="M393.005 50.2168H351.848V54.128H393.005V50.2168Z" fill="#D8DADE"/>
<path d="M393.005 58.2041H351.848V62.1153H393.005V58.2041Z" fill="#D8DADE"/>
<path d="M393.005 66.2064H351.848V70.1027H393.005V66.2064Z" fill="#D8DADE"/>
<path d="M393.005 74.1937H351.848V78.09H393.005V74.1937Z" fill="#D8DADE"/>
<path d="M393.005 82.181H351.848V86.0773H393.005V82.181Z" fill="#D8DADE"/>
<path d="M393.005 90.1685H351.848V94.0647H393.005V90.1685Z" fill="#D8DADE"/>
<path d="M393.005 106.533H291.046V110.429H393.005V106.533Z" fill="#D8DADE"/>
<path d="M393.005 116.183H291.046V120.08H393.005V116.183Z" fill="#D8DADE"/>
<path opacity="0.07" d="M370.206 486.732C370.206 494.03 313.8 499.95 244.223 499.95C174.646 499.95 118.254 494.03 118.254 486.732C118.254 479.434 174.646 473.545 244.223 473.545C313.8 473.545 370.206 479.434 370.206 486.732Z" fill="#737277"/>
<path opacity="0.07" d="M360.294 486.733C360.294 493.446 308.358 498.901 244.283 498.901C180.207 498.901 128.286 493.446 128.286 486.733C128.286 480.019 180.222 474.564 244.283 474.564C308.343 474.564 360.294 480.004 360.294 486.733Z" fill="#737277"/>
<path opacity="0.07" d="M418.3 486.733C418.3 496.818 340.366 505 244.223 505C148.079 505 70.1602 496.818 70.1602 486.733C70.1602 476.647 148.094 468.465 244.223 468.465C340.351 468.465 418.3 476.647 418.3 486.733Z" fill="#737277"/>
<path opacity="0.07" d="M404.531 486.733C404.531 496.024 332.771 503.546 244.223 503.546C155.674 503.546 83.9291 496.024 83.9291 486.733C83.9291 477.441 155.689 469.919 244.223 469.919C332.756 469.919 404.531 477.441 404.531 486.733Z" fill="#737277"/>
<path opacity="0.07" d="M392.87 486.733C392.87 495.349 326.313 502.318 244.223 502.318C162.132 502.318 95.5901 495.349 95.5901 486.733C95.5901 478.116 162.132 471.133 244.223 471.133C326.313 471.133 392.87 478.116 392.87 486.733Z" fill="#737277"/>
<path opacity="0.07" d="M244.223 500.984C319.292 500.984 380.148 494.603 380.148 486.732C380.148 478.862 319.292 472.481 244.223 472.481C169.153 472.481 108.298 478.862 108.298 486.732C108.298 494.603 169.153 500.984 244.223 500.984Z" fill="#737277"/>
<path opacity="0.07" d="M300.494 486.732C300.494 489.984 275.304 492.637 244.223 492.637C213.142 492.637 187.966 489.984 187.966 486.732C187.966 483.481 213.157 480.828 244.223 480.828C275.289 480.828 300.494 483.466 300.494 486.732Z" fill="#737277"/>
<path opacity="0.07" d="M296.009 486.732C296.009 489.73 272.807 492.172 244.193 492.172C215.579 492.172 192.391 489.73 192.391 486.732C192.391 483.735 215.579 481.293 244.193 481.293C272.807 481.293 296.009 483.735 296.009 486.732Z" fill="#737277"/>
<path opacity="0.07" d="M292.272 486.732C292.272 489.52 270.759 491.768 244.223 491.768C217.687 491.768 196.188 489.52 196.188 486.732C196.188 483.945 217.701 481.697 244.223 481.697C270.744 481.697 292.272 483.945 292.272 486.732Z" fill="#737277"/>
<path opacity="0.07" d="M288.161 486.732C288.161 489.28 268.487 491.348 244.223 491.348C219.959 491.348 200.33 489.28 200.33 486.732C200.33 484.185 219.989 482.117 244.253 482.117C268.516 482.117 288.161 484.185 288.161 486.732Z" fill="#737277"/>
<path opacity="0.07" d="M321.424 486.733C321.424 491.228 286.875 494.825 244.253 494.825C201.63 494.825 167.096 491.198 167.096 486.733C167.096 482.267 201.645 478.64 244.253 478.64C286.86 478.64 321.424 482.267 321.424 486.733Z" fill="#737277"/>
<path opacity="0.07" d="M315.28 486.733C315.28 490.854 283.466 494.225 244.223 494.225C204.979 494.225 173.166 490.899 173.166 486.733C173.166 482.567 204.979 479.24 244.223 479.24C283.466 479.24 315.28 482.611 315.28 486.733Z" fill="#737277"/>
<path opacity="0.07" d="M244.223 493.641C280.61 493.641 310.107 490.548 310.107 486.733C310.107 482.917 280.61 479.824 244.223 479.824C207.836 479.824 178.338 482.917 178.338 486.733C178.338 490.548 207.836 493.641 244.223 493.641Z" fill="#737277"/>
<path opacity="0.07" d="M304.471 486.733C304.471 490.224 277.561 493.057 244.223 493.057C210.884 493.057 183.974 490.224 183.974 486.733C183.974 483.241 210.959 480.409 244.223 480.409C277.486 480.409 304.471 483.241 304.471 486.733Z" fill="#737277"/>
<path opacity="0.07" d="M244.223 497.912C303.109 497.912 350.846 492.907 350.846 486.732C350.846 480.558 303.109 475.553 244.223 475.553C185.336 475.553 137.6 480.558 137.6 486.732C137.6 492.907 185.336 497.912 244.223 497.912Z" fill="#737277"/>
<path opacity="0.07" d="M342.354 486.733C342.354 492.412 298.386 497.028 244.163 497.028C189.939 497.028 145.986 492.412 145.986 486.733C145.986 481.053 189.939 476.438 244.163 476.438C298.386 476.438 342.354 481.038 342.354 486.733Z" fill="#737277"/>
<path opacity="0.07" d="M335.268 486.733C335.268 492.008 294.514 496.278 244.223 496.278C193.931 496.278 153.177 492.008 153.177 486.733C153.177 481.458 193.946 477.187 244.223 477.187C294.499 477.187 335.268 481.458 335.268 486.733Z" fill="#737277"/>
<path opacity="0.07" d="M327.479 486.733C327.479 491.558 290.209 495.469 244.223 495.469C198.237 495.469 160.981 491.558 160.981 486.733C160.981 481.907 198.252 478.041 244.223 478.041C290.194 478.041 327.479 481.907 327.479 486.733Z" fill="#737277"/>
<path opacity="0.07" d="M283.018 486.733C283.018 488.98 265.661 490.794 244.223 490.794C222.784 490.794 205.353 488.98 205.353 486.733C205.353 484.485 222.725 482.656 244.223 482.656C265.721 482.656 283.018 484.485 283.018 486.733Z" fill="#737277"/>
<path opacity="0.07" d="M279.564 486.733C279.564 488.786 263.732 490.449 244.193 490.449C224.653 490.449 208.836 488.786 208.836 486.733C208.836 484.679 224.668 483.016 244.193 483.016C263.717 483.016 279.564 484.679 279.564 486.733Z" fill="#737277"/>
<path opacity="0.07" d="M277.202 486.733C277.202 488.636 262.432 490.194 244.223 490.194C226.014 490.194 211.258 488.696 211.258 486.733C211.258 484.77 226.014 483.271 244.223 483.271C262.432 483.271 277.202 484.815 277.202 486.733Z" fill="#737277"/>
<path opacity="0.07" d="M274.586 486.732C274.586 488.486 260.997 489.909 244.223 489.909C227.449 489.909 213.859 488.486 213.859 486.732C213.859 484.979 227.464 483.541 244.223 483.541C260.982 483.541 274.586 484.979 274.586 486.732Z" fill="#737277"/>
<path opacity="0.07" d="M272.388 486.732C272.388 488.366 259.771 489.73 244.223 489.73C228.675 489.73 216.072 488.411 216.072 486.732C216.072 485.054 228.675 483.735 244.223 483.735C259.771 483.735 272.388 485.099 272.388 486.732Z" fill="#737277"/>
<path opacity="0.07" d="M269.967 486.733C269.967 488.231 258.44 489.43 244.223 489.43C230.005 489.43 218.479 488.216 218.479 486.733C218.479 485.249 230.005 484.035 244.223 484.035C258.44 484.035 269.967 485.234 269.967 486.733Z" fill="#737277"/>
<path opacity="0.07" d="M266.962 486.733C266.962 488.051 256.781 489.115 244.223 489.115C231.665 489.115 221.499 488.051 221.499 486.733C221.499 485.414 231.665 484.35 244.223 484.35C256.781 484.35 266.962 485.414 266.962 486.733Z" fill="#737277"/>
<path opacity="0.07" d="M264.958 486.732C264.958 487.931 255.674 488.905 244.223 488.905C232.771 488.905 223.502 487.931 223.502 486.732C223.502 485.534 232.786 484.56 244.223 484.56C255.659 484.56 264.958 485.534 264.958 486.732Z" fill="#737277"/>
<path opacity="0.07" d="M264.958 486.732C264.958 487.931 255.674 488.905 244.223 488.905C232.771 488.905 223.502 487.931 223.502 486.732C223.502 485.534 232.786 484.56 244.223 484.56C255.659 484.56 264.958 485.534 264.958 486.732Z" fill="#737277"/>
<path opacity="0.07" d="M263.314 486.733C263.314 487.842 254.762 488.741 244.223 488.741C233.683 488.741 225.147 487.842 225.147 486.733C225.147 485.624 233.683 484.725 244.223 484.725C254.762 484.725 263.314 485.624 263.314 486.733Z" fill="#737277"/>
<path opacity="0.07" d="M261.923 486.732C261.923 487.751 254 488.591 244.223 488.591C234.445 488.591 226.537 487.751 226.537 486.732C226.537 485.713 234.46 484.874 244.223 484.874C253.985 484.874 261.923 485.713 261.923 486.732Z" fill="#737277"/>
<path opacity="0.07" d="M260.414 486.733C260.414 487.662 253.163 488.426 244.223 488.426C235.283 488.426 228.047 487.662 228.047 486.733C228.047 485.804 235.283 485.039 244.223 485.039C253.163 485.039 260.414 485.789 260.414 486.733Z" fill="#737277"/>
<path opacity="0.07" d="M258.515 486.732C258.515 487.557 252.116 488.231 244.223 488.231C236.329 488.231 229.931 487.557 229.931 486.732C229.931 485.908 236.329 485.234 244.223 485.234C252.116 485.234 258.515 485.908 258.515 486.732Z" fill="#737277"/>
<path opacity="0.07" d="M257.259 486.733C257.259 487.482 251.429 488.096 244.223 488.096C237.017 488.096 231.201 487.482 231.201 486.733C231.201 485.983 237.032 485.369 244.223 485.369C251.414 485.369 257.259 485.983 257.259 486.733Z" fill="#737277"/>
<path opacity="0.07" d="M256.377 486.732C256.377 487.437 250.935 488.006 244.223 488.006C237.51 488.006 232.083 487.437 232.083 486.732C232.083 486.028 237.525 485.459 244.223 485.459C250.92 485.459 256.377 486.028 256.377 486.732Z" fill="#737277"/>
<path opacity="0.07" d="M255.405 486.733C255.405 487.377 250.412 487.902 244.223 487.902C238.033 487.902 233.04 487.377 233.04 486.733C233.04 486.088 238.048 485.564 244.223 485.564C250.397 485.564 255.405 486.088 255.405 486.733Z" fill="#737277"/>
<path opacity="0.07" d="M254.598 486.733C254.598 487.332 249.949 487.827 244.223 487.827C238.497 487.827 233.862 487.332 233.862 486.733C233.862 486.133 238.497 485.639 244.223 485.639C249.949 485.639 254.598 486.133 254.598 486.733Z" fill="#737277"/>
<path opacity="0.07" d="M253.716 486.733C253.716 487.287 249.47 487.722 244.223 487.722C238.975 487.722 234.744 487.287 234.744 486.733C234.744 486.178 238.99 485.744 244.223 485.744C249.455 485.744 253.716 486.178 253.716 486.733Z" fill="#737277"/>
<path opacity="0.07" d="M252.655 486.733C252.655 487.212 248.917 487.617 244.283 487.617C239.648 487.617 235.911 487.212 235.911 486.733C235.911 486.253 239.663 485.848 244.283 485.848C248.902 485.848 252.655 486.253 252.655 486.733Z" fill="#737277"/>
<path opacity="0.07" d="M251.862 486.733C251.862 487.167 248.439 487.527 244.223 487.527C240.007 487.527 236.598 487.167 236.598 486.733C236.598 486.298 240.007 485.923 244.223 485.923C248.439 485.923 251.862 486.283 251.862 486.733Z" fill="#737277"/>
<path opacity="0.07" d="M250.786 486.733C250.786 487.107 247.796 487.422 244.223 487.422C240.65 487.422 237.675 487.107 237.675 486.733C237.675 486.358 240.665 486.043 244.223 486.043C247.781 486.043 250.786 486.358 250.786 486.733Z" fill="#737277"/>
<path opacity="0.07" d="M249.665 486.733C249.665 487.047 247.258 487.302 244.268 487.302C241.278 487.302 238.871 487.047 238.871 486.733C238.871 486.418 241.293 486.163 244.268 486.163C247.243 486.163 249.665 486.418 249.665 486.733Z" fill="#737277"/>
<path opacity="0.07" d="M247.96 486.733C245.496 487.254 242.95 487.254 240.485 486.733C242.95 486.211 245.496 486.211 247.96 486.733Z" fill="#737277"/>
<path opacity="0.07" d="M246.749 486.732C245.084 487.093 243.361 487.093 241.696 486.732C243.361 486.372 245.084 486.372 246.749 486.732Z" fill="#737277"/>
<path d="M111.945 432.964C115.698 441.101 122.769 447.545 129.975 451.891L134.894 454.888L144.536 460.718L150.202 464.134C151.697 465.048 154.194 464.749 154.687 462.726C155.181 460.703 153.476 459.069 152.011 457.885C150.546 456.701 149.5 455.563 148.184 454.454C145.493 452.131 142.937 449.673 140.246 447.335C139.663 446.826 139.095 446.242 138.482 445.747L140.59 447.246L145.732 451.067L152.221 455.787C154.269 457.286 156.302 458.784 158.365 460.283C159.86 461.362 161.355 462.501 162.85 463.49C164.166 464.344 166.438 464.809 167.604 463.415C167.861 463.018 168.034 462.573 168.114 462.107C168.193 461.64 168.178 461.163 168.068 460.703C167.815 459.504 167.212 458.408 166.333 457.556C165.586 456.866 164.838 456.177 164.181 455.428C162.224 453.436 160.163 451.55 158.006 449.778C155.689 447.8 153.387 445.807 151.04 443.859L145.194 438.988C144.282 438.224 143.37 437.49 142.428 436.726C142.428 436.726 169.772 458.245 169.847 458.32C171.685 459.818 176.17 462.171 178.084 459.024C178.337 458.294 178.443 457.52 178.394 456.748C178.345 455.976 178.143 455.221 177.8 454.529C177.076 453.416 176.166 452.438 175.109 451.636C173.091 449.793 171.162 447.89 169.129 446.122C164.838 442.51 160.578 438.854 156.152 435.377C155.181 434.613 154.239 433.788 153.237 433.069C156.523 435.829 159.973 438.386 163.568 440.727C167.679 443.529 170.28 445.852 173.509 447.755C174.387 448.439 175.41 448.911 176.499 449.134C177.237 449.208 177.983 449.119 178.683 448.873C179.383 448.627 180.021 448.23 180.551 447.71C181.582 446.212 180.476 443.214 179.056 442.061C172.423 435.994 165.302 430.486 157.767 425.591C157.767 425.591 151.443 421.74 150.905 421.096C150.905 421.096 163.074 427.779 171.028 426.296C171.028 426.296 181.493 421.006 164.48 417.439C164.48 417.439 154.852 413.138 148.872 410.201C140.935 406.428 131.894 405.697 123.457 408.148C123.457 408.148 112.334 401.27 109.449 398.842L98.7745 412.704C98.7745 412.704 109.135 426.955 111.945 432.964Z" fill="#E1AB81"/>
<path d="M381.09 419.357C381.837 428.349 378.862 437.34 374.736 444.743L371.925 449.748C370.072 453.03 368.248 456.312 366.409 459.594C365.317 461.512 364.241 463.445 363.15 465.378C362.298 466.877 359.98 467.881 358.665 466.352C357.349 464.824 357.917 462.561 358.59 460.807C359.263 459.054 359.651 457.556 360.22 455.952C361.416 452.61 362.432 449.209 363.613 445.852C363.867 445.117 364.077 444.353 364.376 443.589C364.017 444.383 363.658 445.177 363.284 445.957L360.653 451.756C359.547 454.199 358.426 456.626 357.334 459.054C356.243 461.482 355.241 463.685 354.18 465.977C353.417 467.656 352.685 469.364 351.848 470.998C351.115 472.391 349.366 473.92 347.662 473.29C347.242 473.071 346.872 472.767 346.573 472.399C346.275 472.03 346.055 471.604 345.927 471.147C345.569 469.976 345.569 468.723 345.927 467.551C346.241 466.577 346.51 465.633 346.765 464.629C347.48 461.926 348.343 459.264 349.351 456.656C350.382 453.794 351.399 450.932 352.49 448.07L355.181 440.951C355.6 439.843 356.004 438.704 356.482 437.61L343.251 469.949C342.369 472.107 339.648 476.422 336.434 474.639C335.843 474.125 335.362 473.496 335.02 472.79C334.678 472.085 334.483 471.317 334.446 470.533C334.516 469.205 334.825 467.9 335.358 466.682C336.21 464.089 336.942 461.482 337.899 458.904C339.843 453.629 341.756 448.339 343.879 443.139C344.358 441.985 344.761 440.802 345.285 439.678C343.784 443.708 342.037 447.642 340.052 451.456C337.869 455.952 336.748 459.234 334.879 462.486C334.451 463.504 333.802 464.415 332.981 465.153C332.374 465.583 331.68 465.873 330.949 466.003C330.218 466.132 329.467 466.098 328.75 465.903C327.09 465.063 326.642 462.021 327.255 460.283C330.052 451.783 333.552 443.532 337.72 435.617C337.72 435.617 341.323 429.143 341.457 428.319C341.457 428.319 334.177 440.142 326.507 442.78C326.507 442.78 314.772 443.364 327.853 431.84C327.853 431.84 334.102 423.343 337.854 417.844C342.857 410.647 350.302 405.523 358.799 403.428C358.799 403.428 365.093 391.949 366.409 388.442L389.507 398.153C389.507 398.153 380.537 412.764 381.09 419.357Z" fill="#E1AB81"/>
<path d="M217.328 225.998C217.328 225.998 222.755 241.493 207.102 253.257C207.102 253.257 242.982 290.196 290.074 253.257C290.074 253.257 272.134 251.443 278.862 216.302L217.328 225.998Z" fill="#CE966D"/>
<path d="M399.957 384.096L367.381 298.678C360.13 277.414 341.592 264.556 322.217 256.599L290.583 243.681C255.226 282.389 210.914 243.681 210.914 243.681C204.366 247.293 197.848 250.964 191.3 254.606C173.106 264.751 151.608 272.319 140.335 291.006L88.5038 382.133C88.5038 382.133 93.228 416.345 106.623 425.022C106.623 425.022 110.42 404.042 138.242 407.039L133.847 385.46L179.699 338.675L186.964 418.099H309.15L318.733 338.675L357.304 383.347L340.052 414.322C368.965 402.334 381.15 422.07 381.15 422.07C381.15 422.07 395.621 404.537 399.912 384.096" fill="#434041"/>
<path d="M301.825 168.079C301.825 122.298 276.769 97.3765 245.972 97.3765C215.175 97.3765 190.194 122.298 190.119 168.079C188.355 168.079 179.131 168.738 184.378 179.243C187.83 183.785 189.906 189.226 190.358 194.918C190.358 194.918 192.361 199.653 195.306 197.495C201.68 214.144 212.782 228.555 227.24 238.946C227.24 238.946 248.08 252.642 263.538 240.444C279.625 230.866 291.687 215.75 297.475 197.915C299.971 198.769 301.601 194.918 301.601 194.918C302.053 189.226 304.129 183.785 307.581 179.243C312.798 168.738 303.589 168.109 301.825 168.079Z" fill="#E1AB81"/>
<path d="M302.408 168.303C300.584 172.2 292.152 177.549 293.064 182.6C291.943 180.831 293.229 175.347 293.064 173.174C292.724 169.504 292.1 165.866 291.196 162.294C289.387 154.636 287.144 147.773 282.704 141.314C277.471 133.597 271.536 128.532 261.296 129.041C255.136 129.356 245.882 130.839 244.851 138.302C239.588 125.789 217.148 125.969 209.703 136.324C205.338 142.318 203.559 149.212 202.527 156.48C201.914 160.855 201.66 165.291 200.823 169.592C200.315 172.17 199.911 177.505 198.491 179.243C197.949 176.907 196.922 174.712 195.477 172.802C194.032 170.891 192.201 169.307 190.104 168.153C183.257 164.677 189.446 130.929 190.926 125.909C197.982 101.812 218.987 87.7407 243.101 85.1932C255.211 83.9044 267.186 80.6975 279.579 81.6116C276.726 83.736 274.114 86.1683 271.79 88.8646C278.817 87.7257 285.485 85.5079 292.99 86.0773C289.013 89.0744 290.837 93.4652 288.848 97.841C297.564 97.3015 304.023 108.121 308.523 114.325C304.351 113.216 300.405 111.058 296.264 109.83C314.637 115.089 307.969 156.54 302.408 168.303Z" fill="#40290F"/>
<path d="M210.914 243.741L196.742 251.623C196.742 251.623 221.873 274.581 247.751 274.701H248.588C274.751 274.327 292.9 266.864 302.707 248.671L290.583 243.741C290.583 243.741 270.714 261.409 253.671 260.944C253.671 260.944 235.507 261.844 210.914 243.741Z" fill="#EDEEF0"/>
<path d="M339.439 310.277H151.877C146.972 310.277 142.996 314.262 142.996 319.179V456.297C142.996 461.213 146.972 465.198 151.877 465.198H339.439C344.344 465.198 348.319 461.213 348.319 456.297V319.179C348.319 314.262 344.344 310.277 339.439 310.277Z" fill="#1F140F"/>
<path d="M145.433 321.067V397.778C145.433 432.709 149.305 461.032 154.089 461.032H337.077C341.861 461.032 345.733 432.709 345.733 397.778V321.067H145.433Z" fill="#89878C"/>
<path d="M202.094 462.906H173.734V469.604H202.094V462.906Z" fill="#89878C"/>
<path d="M312.559 462.906H284.199V469.604H312.559V462.906Z" fill="#89878C"/>
<path d="M122.126 472.316H369.817C369.817 472.316 366.394 483.196 360.205 487.302H144.551C144.551 487.302 124.294 485.264 122.126 472.316Z" fill="#1F140F"/>
</svg>
