<?xml version="1.0"?>
<svg xmlns="http://www.w3.org/2000/svg" xmlns:xlink="http://www.w3.org/1999/xlink" xmlns:svgjs="http://svgjs.com/svgjs" version="1.1" width="512" height="512" x="0" y="0" viewBox="0 0 64 64" style="enable-background:new 0 0 512 512" xml:space="preserve" class=""><g><path xmlns="http://www.w3.org/2000/svg" d="m2 63h34c.552 0 1-.447 1-1v-18.172c0-2.092-.814-4.058-2.293-5.535-1.479-1.479-3.445-2.293-5.536-2.293h-5.171c-.551 0-1-.448-1-1v-1.764c2.849-1.118 5.118-3.387 6.236-6.236h.764c2.206 0 4-1.794 4-4s-1.794-4-4-4v-1h3c.552 0 1-.448 1-1v-4c0-.552-.448-1-1-1h-1.051c-.511-6.149-5.67-11-11.949-11h-2c-6.279 0-11.438 4.851-11.949 11h-1.051c-.552 0-1 .448-1 1v4c0 .552.448 1 1 1h3v1c-2.206 0-4 1.794-4 4s1.794 4 4 4h.764c1.118 2.849 3.387 5.118 6.236 6.236v1.764c0 .552-.449 1-1 1h-5.171c-2.091 0-4.057.814-5.536 2.293-1.479 1.478-2.293 3.443-2.293 5.535v18.172c0 .553.448 1 1 1zm31.293-23.293c1.101 1.101 1.707 2.564 1.707 4.121v17.172h-2v-10c0-.266-.105-.52-.293-.707-2.391-2.391-3.707-5.569-3.707-8.95v-3.343h.171c1.557 0 3.021.606 4.122 1.707zm-1.293-16.707c0 1.103-.897 2-2 2h-.191c.12-.65.191-1.316.191-2v-2c1.103 0 2 .897 2 2zm-12-20v5h-2v-5zm-4 .202v5.798c0 .552.448 1 1 1h4c.552 0 1-.448 1-1v-5.798c4.24.864 7.513 4.42 7.949 8.798h-21.898c.436-4.379 3.709-7.934 7.949-8.798zm-10 10.798h26v2h-26zm2 11c-1.103 0-2-.897-2-2s.897-2 2-2v2c0 .684.071 1.35.191 2zm2-2v-5h18v5c0 4.962-4.038 9-9 9s-9-4.038-9-9zm7 12v-1.191c.65.12 1.316.191 2 .191s1.35-.071 2-.191v1.191c0 1.302.839 2.402 2 2.816v.184c0 2.206-1.794 4-4 4s-4-1.794-4-4v-.184c1.161-.414 2-1.514 2-2.816zm2 9c3.309 0 6-2.691 6-6h2v3.343c0 3.774 1.417 7.331 4 10.063v9.594h-24v-9.594c2.583-2.732 4-6.289 4-10.063v-3.343h2c0 3.309 2.691 6 6 6zm-16-.172c0-1.557.606-3.021 1.707-4.121 1.101-1.101 2.565-1.707 4.122-1.707h.171v3.343c0 3.381-1.316 6.56-3.707 8.95-.188.187-.293.441-.293.707v10h-2z" fill="#4db683" data-original="#000000" style="" class=""/><path xmlns="http://www.w3.org/2000/svg" d="m39 56.049c0 3.086 1.869 5.854 4.651 6.889.307.113.65.07.919-.116.27-.188.43-.495.43-.822v-5.552l1-1.051 1 1.051v5.552c0 .327.16.634.429.821.17.118.37.179.571.179.117 0 .235-.021.349-.062 2.782-1.035 4.651-3.803 4.651-6.889 0-2.832-1.582-5.398-4-6.598v-17.02c2.418-1.199 4-3.766 4-6.598 0-3.086-1.869-5.854-4.651-6.888-.308-.115-.651-.071-.919.116-.27.187-.43.494-.43.821v5.551l-1 1.051-1-1.051v-5.551c0-.328-.16-.634-.429-.821-.27-.188-.612-.232-.919-.117-2.782 1.035-4.652 3.803-4.652 6.889 0 2.833 1.582 5.399 4 6.598v17.02c-2.418 1.199-4 3.766-4 6.598zm5.349-25.21c-2.003-.746-3.349-2.758-3.349-5.006 0-1.7.765-3.264 2-4.249v4.249c0 .256.099.503.275.689l2 2.103c.378.397 1.071.397 1.449 0l2-2.103c.177-.186.276-.433.276-.689v-4.249c1.235.986 2 2.549 2 4.249 0 2.248-1.346 4.26-3.349 5.006-.391.145-.651.519-.651.937v18.331c0 .418.26.791.651.938 2.003.744 3.349 2.756 3.349 5.004 0 1.7-.765 3.264-2 4.249v-4.249c0-.257-.099-.503-.275-.689l-2-2.103c-.189-.198-.451-.311-.725-.311s-.536.112-.725.311l-2 2.103c-.176.186-.275.432-.275.689v4.249c-1.235-.985-2-2.549-2-4.249 0-2.248 1.346-4.26 3.349-5.005.391-.147.651-.52.651-.938v-18.33c0-.418-.26-.792-.651-.937z" fill="#4db683" data-original="#000000" style="" class=""/><path xmlns="http://www.w3.org/2000/svg" d="m62 1h-8c-.552 0-1 .448-1 1v8c0 .265.105.52.293.707l1.707 1.707v21.172l-1.707 1.707c-.188.187-.293.441-.293.707v8c0 .553.448 1 1 1h8c.552 0 1-.447 1-1v-8c0-.266-.105-.52-.293-.707l-1.707-1.707v-21.172l1.707-1.707c.188-.187.293-.442.293-.707v-8c0-.552-.448-1-1-1zm-1 8.586-1.707 1.707c-.188.187-.293.442-.293.707v22c0 .266.105.52.293.707l1.707 1.707v6.586h-6v-6.586l1.707-1.707c.188-.187.293-.441.293-.707v-22c0-.265-.105-.52-.293-.707l-1.707-1.707v-6.586h6z" fill="#4db683" data-original="#000000" style="" class=""/></g></svg>
