<svg xmlns="http://www.w3.org/2000/svg" viewBox="0 0 598.5 200"><defs><style>.cls-1{fill:#fff;}</style></defs><title>appstore_1</title><g id="Camada_2" data-name="Camada 2"><g id="Camada_1-2" data-name="Camada 1"><path class="cls-1" d="M177.28,42.66h13.33c3.64,0,6.22,1.08,7.76,3.24a7.43,7.43,0,0,1,1.35,4.41,6.9,6.9,0,0,1-1.66,4.78,8.15,8.15,0,0,1-2.47,1.81,10.31,10.31,0,0,1,3.54,2,7.35,7.35,0,0,1,2.08,5.56,8.53,8.53,0,0,1-1.88,5.4q-2.81,3.6-8.93,3.61H177.28Zm11.77,13a9.58,9.58,0,0,0,4.16-.73,4.22,4.22,0,0,0,2.33-4.16,4,4,0,0,0-2.48-4.07,11.29,11.29,0,0,0-4.16-.59h-7.53V55.7Zm1.41,14.24c2.59,0,4.43-.74,5.54-2.23a5.56,5.56,0,0,0,1-3.4,4.54,4.54,0,0,0-3-4.58,11.63,11.63,0,0,0-4.26-.65h-8.37V69.94Z"/><path class="cls-1" d="M219.12,59.9a2.07,2.07,0,0,0,1.74-1.09,3.33,3.33,0,0,0,.25-1.46,3.09,3.09,0,0,0-1.37-2.81,7.39,7.39,0,0,0-3.93-.87c-2,0-3.37.53-4.19,1.6a5.31,5.31,0,0,0-.9,2.64h-3.53c.07-2.78,1-4.72,2.69-5.8a11,11,0,0,1,6-1.64A12.2,12.2,0,0,1,222.33,52a5.1,5.1,0,0,1,2.45,4.7v13a1.58,1.58,0,0,0,.25.94,1.15,1.15,0,0,0,1,.36l.57,0,.67-.1v2.79a10,10,0,0,1-1.34.32,10.35,10.35,0,0,1-1.26.06,3.13,3.13,0,0,1-2.84-1.38,5.6,5.6,0,0,1-.65-2.08,9.55,9.55,0,0,1-3.31,2.62,10.31,10.31,0,0,1-4.77,1.11A7.09,7.09,0,0,1,208,72.37a6.29,6.29,0,0,1-2-4.75,6.1,6.1,0,0,1,2-4.85,9.37,9.37,0,0,1,5.12-2.12Zm-8,10.21a4.43,4.43,0,0,0,2.83.94,8.73,8.73,0,0,0,3.87-.92,5.18,5.18,0,0,0,3.14-5v-3a6.62,6.62,0,0,1-1.78.74,16.69,16.69,0,0,1-2.13.42l-2.29.29a8.82,8.82,0,0,0-3.09.86A3.35,3.35,0,0,0,210,67.53,3.11,3.11,0,0,0,211.16,70.11Z"/><path class="cls-1" d="M232.48,42.66h3.85V47h-3.85Zm0,8.47h3.85V73.51h-3.85Z"/><path class="cls-1" d="M241.4,51h4.89l5.17,7.92L256.69,51l4.59.11L253.7,62l7.92,11.53h-4.83l-5.58-8.44-5.42,8.44H241L248.92,62Z"/><path class="cls-1" d="M278.6,59.9a2,2,0,0,0,1.74-1.09,3.33,3.33,0,0,0,.25-1.46,3.07,3.07,0,0,0-1.37-2.81,7.34,7.34,0,0,0-3.93-.87c-2,0-3.37.53-4.19,1.6a5.31,5.31,0,0,0-.9,2.64h-3.53c.07-2.78,1-4.72,2.7-5.8a11,11,0,0,1,6-1.64A12.17,12.17,0,0,1,281.81,52a5.11,5.11,0,0,1,2.46,4.7v13a1.66,1.66,0,0,0,.24.94,1.16,1.16,0,0,0,1,.36l.56,0,.68-.1v2.79a10.1,10.1,0,0,1-1.35.32,10.35,10.35,0,0,1-1.26.06,3.11,3.11,0,0,1-2.83-1.38,5.26,5.26,0,0,1-.65-2.08,9.59,9.59,0,0,1-3.32,2.62,10.28,10.28,0,0,1-4.77,1.11,7.11,7.11,0,0,1-5.11-1.89,6.32,6.32,0,0,1-2-4.75,6.13,6.13,0,0,1,1.95-4.85,9.37,9.37,0,0,1,5.12-2.12Zm-8,10.21a4.44,4.44,0,0,0,2.84.94,8.72,8.72,0,0,0,3.86-.92,5.19,5.19,0,0,0,3.15-5v-3a6.76,6.76,0,0,1-1.78.74,17.18,17.18,0,0,1-2.14.42l-2.28.29a8.82,8.82,0,0,0-3.09.86,3.34,3.34,0,0,0-1.76,3.14A3.11,3.11,0,0,0,270.64,70.11Z"/><path class="cls-1" d="M292.07,51h3.59v3.89a8.8,8.8,0,0,1,2.16-2.77,5.62,5.62,0,0,1,4-1.62,2.88,2.88,0,0,1,.36,0l.86.08v4a5,5,0,0,0-.62-.08,6.12,6.12,0,0,0-.62,0,5.41,5.41,0,0,0-4.39,1.83,6.44,6.44,0,0,0-1.53,4.23V73.51h-3.78Z"/><path class="cls-1" d="M321.24,51h3.59v3.19a10.13,10.13,0,0,1,3.38-2.83,9,9,0,0,1,4-.86q4.79,0,6.47,3.34a11.91,11.91,0,0,1,.92,5.22V73.51h-3.84V59.34a7.6,7.6,0,0,0-.61-3.32,3.69,3.69,0,0,0-3.65-2.1,7.56,7.56,0,0,0-2.21.27A5.78,5.78,0,0,0,326.53,56a5.57,5.57,0,0,0-1.23,2.3,16.08,16.08,0,0,0-.28,3.39V73.51h-3.78Z"/><path class="cls-1" d="M358.71,59.9a2.08,2.08,0,0,0,1.75-1.09,3.49,3.49,0,0,0,.25-1.46,3.07,3.07,0,0,0-1.38-2.81,7.32,7.32,0,0,0-3.92-.87c-2,0-3.37.53-4.2,1.6a5.31,5.31,0,0,0-.9,2.64h-3.52c.07-2.78,1-4.72,2.69-5.8a11,11,0,0,1,6-1.64A12.2,12.2,0,0,1,361.93,52a5.12,5.12,0,0,1,2.45,4.7v13a1.66,1.66,0,0,0,.24.94,1.16,1.16,0,0,0,1,.36l.57,0,.67-.1v2.79a7.07,7.07,0,0,1-2.6.38,3.13,3.13,0,0,1-2.84-1.38,5.42,5.42,0,0,1-.65-2.08,9.5,9.5,0,0,1-3.32,2.62,10.27,10.27,0,0,1-4.76,1.11,7.09,7.09,0,0,1-5.11-1.89,6.29,6.29,0,0,1-2-4.75,6.13,6.13,0,0,1,1.95-4.85,9.41,9.41,0,0,1,5.13-2.12Zm-8,10.21a4.46,4.46,0,0,0,2.84.94,8.66,8.66,0,0,0,3.86-.92,5.19,5.19,0,0,0,3.15-5v-3a6.62,6.62,0,0,1-1.78.74,17.18,17.18,0,0,1-2.14.42l-2.28.29a8.82,8.82,0,0,0-3.09.86,3.33,3.33,0,0,0-1.75,3.14A3.13,3.13,0,0,0,350.75,70.11Z"/><path class="cls-1" d="M194.87,90.1h9.56l22.64,62.41h-9.26l-6.33-18.69H186.8l-6.75,18.69h-8.67Zm13.89,36.83-9.47-27.56-10.07,27.56Z"/><path class="cls-1" d="M232.67,107.22h7.48v6a18.4,18.4,0,0,1,5-4.8,16.22,16.22,0,0,1,9.12-2.55,17.17,17.17,0,0,1,13.16,5.92q5.4,5.92,5.41,16.93,0,14.87-7.81,21.24a17.67,17.67,0,0,1-11.51,4,15.69,15.69,0,0,1-8.66-2.25,19.84,19.84,0,0,1-4.56-4.38v23.24h-7.65Zm28.77,35.67q3.56-4.48,3.56-13.41a24.93,24.93,0,0,0-1.58-9.34q-3-7.53-10.91-7.52t-10.91,7.94A31.17,31.17,0,0,0,240,131.35a22.71,22.71,0,0,0,1.58,9q3,7.05,10.91,7.05A11,11,0,0,0,261.44,142.89Z"/><path class="cls-1" d="M280.62,107.22h7.48v6a18.4,18.4,0,0,1,5-4.8,16.22,16.22,0,0,1,9.12-2.55,17.17,17.17,0,0,1,13.16,5.92q5.4,5.92,5.41,16.93,0,14.87-7.81,21.24a17.69,17.69,0,0,1-11.51,4,15.69,15.69,0,0,1-8.66-2.25,19.64,19.64,0,0,1-4.56-4.38v23.24h-7.65Zm28.77,35.67q3.56-4.48,3.56-13.41a24.93,24.93,0,0,0-1.58-9.34q-3-7.53-10.91-7.52t-10.91,7.94A31.17,31.17,0,0,0,288,131.35a22.71,22.71,0,0,0,1.58,9q3,7.05,10.91,7.05A11,11,0,0,0,309.39,142.89Z"/><path class="cls-1" d="M359.49,132.37A17.53,17.53,0,0,0,361.9,141q4.05,6.19,14.28,6.2a24.34,24.34,0,0,0,8.35-1.36q7.29-2.64,7.28-9.43,0-5.1-3.08-7.27t-9.8-3.69l-8.19-1.91q-8-1.87-11.35-4.12-5.77-3.92-5.77-11.69a18.21,18.21,0,0,1,5.67-13.8q5.65-5.4,16-5.4,9.54,0,16.22,4.74t6.68,15.14h-8a16,16,0,0,0-2.6-7.69q-3.71-4.87-12.59-4.88-7.17,0-10.3,3.14a10,10,0,0,0-3.14,7.31,7.18,7.18,0,0,0,3.71,6.71q2.43,1.36,11,3.4l8.48,2a25.51,25.51,0,0,1,9.46,3.95q5.76,4.37,5.77,12.7,0,10.37-7.36,14.82a32.24,32.24,0,0,1-17.09,4.46q-11.36,0-17.77-5.94t-6.3-16Z"/><path class="cls-1" d="M412.07,94.31h7.73V107h7.26v6.25H419.8V143a3.22,3.22,0,0,0,1.61,3.19,7,7,0,0,0,3,.46l1.18,0c.43,0,.92-.07,1.49-.15v6.08a17.26,17.26,0,0,1-2.74.55,26.72,26.72,0,0,1-3.08.17q-5.36,0-7.26-2.74a12.14,12.14,0,0,1-1.91-7.11V113.26h-6.16V107h6.16Z"/><path class="cls-1" d="M467.24,111.55q6,5.86,6,17.23,0,11-5.32,18.17t-16.49,7.17q-9.31,0-14.81-6.34t-5.48-17q0-11.46,5.78-18.25t15.52-6.8A20.41,20.41,0,0,1,467.24,111.55Zm-4.75,30.24A28.91,28.91,0,0,0,465.28,129a23.05,23.05,0,0,0-2-10.36q-3.19-6.27-11-6.28-6.93,0-10.08,5.35a25,25,0,0,0-3.15,12.9,21.7,21.7,0,0,0,3.15,12.09q3.15,4.85,10,4.84Q459.7,147.54,462.49,141.79Z"/><path class="cls-1" d="M482.44,107h7.26v7.86q.89-2.3,4.37-5.59a11.38,11.38,0,0,1,8-3.29l.73,0,1.74.17v8.08a9,9,0,0,0-1.26-.17c-.38,0-.8,0-1.25,0q-5.78,0-8.88,3.72a13,13,0,0,0-3.1,8.56v26.17h-7.64Z"/><path class="cls-1" d="M538.86,108.26a17.23,17.23,0,0,1,6.88,5.89,20.25,20.25,0,0,1,3,8,52.66,52.66,0,0,1,.68,10H516.37q.21,6.95,3.24,11.14t9.4,4.2a12.11,12.11,0,0,0,9.49-4,13.56,13.56,0,0,0,2.8-5.34h7.52a15.76,15.76,0,0,1-2,5.59,20,20,0,0,1-3.75,5,17.54,17.54,0,0,1-8.55,4.59,25.53,25.53,0,0,1-6.2.68A19,19,0,0,1,514,147.94q-5.88-6.18-5.87-17.31,0-11,5.91-17.8A19.44,19.44,0,0,1,529.53,106,20.57,20.57,0,0,1,538.86,108.26Zm2.74,17.87a19.88,19.88,0,0,0-2.15-7.95q-3.12-5.52-10.4-5.52a11.5,11.5,0,0,0-8.76,3.8,14.44,14.44,0,0,0-3.75,9.67Z"/><path class="cls-1" d="M566.65,200H31.85A31.89,31.89,0,0,1,0,168.15V31.85A31.89,31.89,0,0,1,31.85,0h534.8A31.89,31.89,0,0,1,598.5,31.85v136.3A31.89,31.89,0,0,1,566.65,200ZM31.85,3A28.88,28.88,0,0,0,3,31.85v136.3A28.88,28.88,0,0,0,31.85,197h534.8a28.88,28.88,0,0,0,28.85-28.85V31.85A28.88,28.88,0,0,0,566.65,3Z"/><path id="path4" class="cls-1" d="M138.51,127.6a62.35,62.35,0,0,1-6.06,10.9,55.38,55.38,0,0,1-7.82,9.44,15.15,15.15,0,0,1-10,4.42,25.09,25.09,0,0,1-9.28-2.22,26.7,26.7,0,0,0-10-2.2,27.63,27.63,0,0,0-10.27,2.2,27.53,27.53,0,0,1-8.87,2.34q-5.15.21-10.26-4.54a57.76,57.76,0,0,1-8.17-9.78A67.12,67.12,0,0,1,49.13,121a62.73,62.73,0,0,1-3.63-20.45q0-11.34,4.9-19.54A28.84,28.84,0,0,1,60.68,70.62,27.59,27.59,0,0,1,74.56,66.7c2.73,0,6.3.84,10.75,2.5s7.27,2.51,8.51,2.51c.94,0,4.1-1,9.45-2.95,5.07-1.83,9.34-2.58,12.84-2.28q14.24,1.14,21.36,11.24-12.72,7.71-12.6,21.58a23.81,23.81,0,0,0,7.82,17.94,25.55,25.55,0,0,0,7.81,5.13q-.94,2.72-2,5.23ZM116.75,42q0,8.46-6.17,15.78c-5,5.8-11,9.14-17.46,8.62A18.23,18.23,0,0,1,93,64.22C93,58.8,95.35,53,99.54,48.27a25.07,25.07,0,0,1,8-6,23.75,23.75,0,0,1,9.12-2.59,21.53,21.53,0,0,1,.12,2.26Z"/></g></g></svg>