<svg xmlns="http://www.w3.org/2000/svg" viewBox="0 0 598.5 200"><defs><style>.cls-1{fill:#fff;}</style></defs><title>googleplay</title><g id="Camada_2" data-name="Camada 2"><g id="Camada_1-2" data-name="Camada 1"><path class="cls-1" d="M566.65,200H31.85A31.89,31.89,0,0,1,0,168.15V31.85A31.89,31.89,0,0,1,31.85,0h534.8A31.89,31.89,0,0,1,598.5,31.85v136.3A31.89,31.89,0,0,1,566.65,200ZM31.85,3A28.88,28.88,0,0,0,3,31.85v136.3A28.88,28.88,0,0,0,31.85,197h534.8a28.88,28.88,0,0,0,28.85-28.85V31.85A28.88,28.88,0,0,0,566.65,3Z"/><path class="cls-1" d="M166.09,69.15V43.38H174a12.84,12.84,0,0,1,9.48,3.56,12.57,12.57,0,0,1,3.59,9.32,12.58,12.58,0,0,1-3.59,9.35A12.91,12.91,0,0,1,174,69.15Zm3.32-22.61V66H174a8.93,8.93,0,0,0,9.68-9.72A9,9,0,0,0,174,46.54Z"/><path class="cls-1" d="M195.36,69.15h-3.31V43.38h3.31Z"/><path class="cls-1" d="M217.54,62.28a6.69,6.69,0,0,1-2.49,5.43,9.46,9.46,0,0,1-6.12,2,9.1,9.1,0,0,1-5.65-1.87,9.58,9.58,0,0,1-3.38-5.12l3.16-1.29a8.57,8.57,0,0,0,.9,2.09,7.29,7.29,0,0,0,1.35,1.6,6.27,6.27,0,0,0,1.71,1,5.32,5.32,0,0,0,2,.38,5.68,5.68,0,0,0,3.71-1.17,3.81,3.81,0,0,0,1.44-3.11A3.72,3.72,0,0,0,213,59.5a11.35,11.35,0,0,0-4.17-2.16,38.35,38.35,0,0,1-3.85-1.51q-4.11-2.09-4.11-6.15a6.27,6.27,0,0,1,2.27-4.86,8.26,8.26,0,0,1,5.65-2,8.66,8.66,0,0,1,5.11,1.51A7.1,7.1,0,0,1,216.74,48l-3.09,1.3a4.63,4.63,0,0,0-1.71-2.4,5.1,5.1,0,0,0-3.12-1,5,5,0,0,0-3.27,1.08,3.14,3.14,0,0,0-1.33,2.63,3,3,0,0,0,1,2.3,17.81,17.81,0,0,0,5,2.3,12.76,12.76,0,0,1,5.6,3.26A7,7,0,0,1,217.54,62.28Z"/><path class="cls-1" d="M225.92,58.71V69.15h-3.31V43.38h8.79a8,8,0,0,1,5.69,2.23,7.46,7.46,0,0,1,0,10.91,8,8,0,0,1-5.69,2.19Zm0-12.17v9h5.55a4.56,4.56,0,0,0,4.61-4.5,4.63,4.63,0,0,0-4.61-4.5Z"/><path class="cls-1" d="M268.87,56.26a13.08,13.08,0,0,1-3.81,9.58,13.39,13.39,0,0,1-18.87,0,13.08,13.08,0,0,1-3.81-9.58,13.07,13.07,0,0,1,3.81-9.57,13.35,13.35,0,0,1,18.87,0A13,13,0,0,1,268.87,56.26Zm-23.11,0a10.21,10.21,0,0,0,2.81,7.38,9.43,9.43,0,0,0,7.05,2.92,9.32,9.32,0,0,0,7-2.92,10,10,0,0,0,2.85-7.38,10,10,0,0,0-2.85-7.38,9.35,9.35,0,0,0-7-2.91,9.46,9.46,0,0,0-7.05,2.91A10.24,10.24,0,0,0,245.76,56.26Z"/><path class="cls-1" d="M277.19,69.15h-3.31V43.38h4l12.53,20h.14l-.14-5V43.38h3.31V69.15h-3.46l-13.1-21H277l.15,5Z"/><path class="cls-1" d="M303.32,69.15H300V43.38h3.31Zm2.38-32.4-2.59,4.61h-2.88l1.87-4.61Z"/><path class="cls-1" d="M319.42,69.15H316l-9.07-25.77h3.67l7.06,20.91h.14l7.34-20.91h3.68Z"/><path class="cls-1" d="M347.93,43.38v3.16H336.19v8.18h10.59v3.09H336.19V66h11.74v3.17H332.88V43.38Z"/><path class="cls-1" d="M367.94,69.15H353.47V43.38h3.31V66h11.16Z"/><path class="cls-1" d="M384.79,69.15h-3.31V43.38h4l12.53,20h.14l-.14-5V43.38h3.31V69.15h-3.46l-13.1-21h-.14l.14,5Z"/><path class="cls-1" d="M409.13,69.15h-3.68l9.72-25.77h3.75l9.72,25.77H425l-2.49-7H411.65ZM417,47.44l-4.21,11.63h8.57l-4.21-11.63Z"/><path class="cls-1" d="M222.86,119.49q0,11.7-6.94,18.64-7.8,8.26-20.52,8.27a28.75,28.75,0,0,1-29-29.17,28.75,28.75,0,0,1,29-29.17A31,31,0,0,1,207,90.24a23.37,23.37,0,0,1,9,6.16l-5.15,5.15a17.35,17.35,0,0,0-6.67-4.88,22.06,22.06,0,0,0-8.78-1.75A21,21,0,0,0,180,101.24a22,22,0,0,0-6.24,16,22,22,0,0,0,6.24,16,21,21,0,0,0,15.44,6.32,20.79,20.79,0,0,0,13.89-4.68q5.53-4.68,6.39-12.87H195.4v-6.71h27.07A23.9,23.9,0,0,1,222.86,119.49Z"/><path class="cls-1" d="M225.43,126A20.21,20.21,0,0,1,231,111.46a18.87,18.87,0,0,1,14.12-5.78,18.62,18.62,0,0,1,14,5.78A20.07,20.07,0,0,1,264.75,126q0,8.89-5.62,14.59a18.61,18.61,0,0,1-14,5.77A18.86,18.86,0,0,1,231,140.63,20.24,20.24,0,0,1,225.43,126Zm7.18,0a14,14,0,0,0,3.59,10A12.25,12.25,0,0,0,254,136a14,14,0,0,0,3.59-10,13.88,13.88,0,0,0-3.59-9.9,12.08,12.08,0,0,0-17.78,0A13.84,13.84,0,0,0,232.61,126Z"/><path class="cls-1" d="M266.77,126a20.21,20.21,0,0,1,5.54-14.58,18.87,18.87,0,0,1,14.12-5.78,18.62,18.62,0,0,1,14,5.78A20.07,20.07,0,0,1,306.09,126q0,8.89-5.62,14.59a18.61,18.61,0,0,1-14,5.77,18.86,18.86,0,0,1-14.12-5.77A20.24,20.24,0,0,1,266.77,126Zm7.18,0a14,14,0,0,0,3.59,10,12.25,12.25,0,0,0,17.78,0,14,14,0,0,0,3.59-10,13.88,13.88,0,0,0-3.59-9.9,12.08,12.08,0,0,0-17.78,0A13.84,13.84,0,0,0,274,126Z"/><path class="cls-1" d="M327.22,163.25a21.17,21.17,0,0,1-6-.82,19.31,19.31,0,0,1-5.11-2.3,16.44,16.44,0,0,1-3.94-3.51,14.86,14.86,0,0,1-2.5-4.53l6.79-2.8a10.77,10.77,0,0,0,4.05,5.38,11.4,11.4,0,0,0,6.71,2q5.85,0,9.13-3.51t3.28-9.68v-3.66h-.32a14.05,14.05,0,0,1-5.5,4.8,16.54,16.54,0,0,1-7.52,1.75,16.89,16.89,0,0,1-12.87-5.85A21.14,21.14,0,0,1,308.11,126a20.85,20.85,0,0,1,5.31-14.43,16.8,16.8,0,0,1,12.87-5.93,16.42,16.42,0,0,1,7.52,1.76,14.05,14.05,0,0,1,5.5,4.8h.32v-5.31h6.86v36.58q0,9.21-5.23,14.43T327.22,163.25Zm.24-23.4a11,11,0,0,0,8.65-3.82,15.81,15.81,0,0,0,0-19.89,11,11,0,0,0-8.65-3.9,11.18,11.18,0,0,0-8.66,3.9,14.24,14.24,0,0,0-3.51,9.9A14.08,14.08,0,0,0,318.8,136,11.18,11.18,0,0,0,327.46,139.85Z"/><path class="cls-1" d="M360.06,89.3v55.85h-7.18V89.3Z"/><path class="cls-1" d="M383.23,146.4a18.28,18.28,0,0,1-13.89-5.77A20.39,20.39,0,0,1,363.88,126a20.77,20.77,0,0,1,5.31-14.55,17.56,17.56,0,0,1,13.57-5.81q8.5,0,13.53,5.5t5,15.41l-.08.78h-30a12.5,12.5,0,0,0,3.75,9,12,12,0,0,0,8.58,3.43q6.85,0,10.76-6.87l6.4,3.12a19.08,19.08,0,0,1-7.14,7.57A19.74,19.74,0,0,1,383.23,146.4Zm-11.47-25h21.92a9.52,9.52,0,0,0-3.24-6.59,11.33,11.33,0,0,0-7.84-2.61,10.42,10.42,0,0,0-7,2.49A11.92,11.92,0,0,0,371.76,121.44Z"/><path class="cls-1" d="M428.78,122.53v22.62H421.6V89.3h19A17.22,17.22,0,0,1,453,94.14a16.13,16.13,0,0,1,0,23.63,17.16,17.16,0,0,1-12.33,4.76Zm0-26.36v19.5h12a9.47,9.47,0,0,0,7.1-2.89,9.79,9.79,0,0,0-7.1-16.61Z"/><path class="cls-1" d="M473.86,89.3v55.85h-7.18V89.3Z"/><path class="cls-1" d="M498.66,105.68q8,0,12.56,4.26t4.6,11.66v23.55H509v-5.3h-.31q-4.45,6.56-11.86,6.55a15.46,15.46,0,0,1-10.57-3.74A12,12,0,0,1,482,133.3a11.36,11.36,0,0,1,4.49-9.44q4.49-3.51,12-3.51A21.21,21.21,0,0,1,509,122.69v-1.64a8.19,8.19,0,0,0-3-6.36,10.19,10.19,0,0,0-6.95-2.61,11,11,0,0,0-9.51,5.07l-6.32-4Q488.44,105.69,498.66,105.68Zm-9.28,27.77a5.73,5.73,0,0,0,2.38,4.68,8.76,8.76,0,0,0,5.58,1.87,11.43,11.43,0,0,0,8.07-3.35,10.5,10.5,0,0,0,3.55-7.88q-3.36-2.66-9.36-2.65a12.11,12.11,0,0,0-7.29,2.11A6.25,6.25,0,0,0,489.38,133.45Z"/><path class="cls-1" d="M559.27,106.93,535.32,162h-7.41l8.9-19.27-15.76-35.8h7.8l11.39,27.46h.15l11.08-27.46Z"/><path class="cls-1" d="M106,95.68,62,51.56,118,83.7l-12,12ZM50.54,49a7.76,7.76,0,0,0-4.33,7v88a7.76,7.76,0,0,0,4.33,7l51.16-51Zm84.77,45-11.74-6.8L110.47,100l13.1,12.86,12-6.8c3.59-2.85,3.59-9.27-.24-12.12ZM62,148.46l56-32.14-12-12Z"/></g></g></svg>